<?xml version="1.0" encoding="UTF-8"?>
<svg xmlns="http://www.w3.org/2000/svg" version="1.2" viewBox="0 0 395 825" width="395" height="825">
  <title>New Project</title>
  <style>
		.s0 { fill: #c1f6e1 } 
		.s1 { fill: #a5a5a5 } 
		.s2 { opacity: .8;fill: #000000 } 
		.s3 { opacity: .6;fill: none;stroke: #000000 } 
		.s4 { fill: none;stroke: #bebebe } 
	</style>
  <g id="Folder 1">
    <g id="Layer" style="opacity: .6">
      <path id="Layer" class="s0" d="m33.5 683.5h-24v-454h4c11 0 20 9 20 20z"></path>
      <path id="Layer" class="s1" d="m34 684h-24.5v-1h23.5zm-24.5-455h4c11.3 0 20.5 9.2 20.5 20.5h-1c0-10.8-8.7-19.5-19.5-19.5h-4zm4 0c11.3 0 20.5 9.2 20.5 20.5v434.5l-1-1v-433.5c0-10.8-8.7-19.5-19.5-19.5zm-4 454.5v-454z"></path>
    </g>
    <g id="Layer" style="opacity: .6">
      <path id="Layer" class="s0" d="m363.5 683.5h24v-454h-4c-11 0-20 9-20 20z"></path>
      <path id="Layer" class="s1" d="m363 684h24.5v-1h-23.5zm24.5-455h-4c-11.3 0-20.5 9.2-20.5 20.5h1c0-10.8 8.7-19.5 19.5-19.5h4zm-4 0c-11.3 0-20.5 9.2-20.5 20.5v434.5l1-1v-433.5c0-10.8 8.7-19.5 19.5-19.5zm4 454.5v-454z"></path>
    </g>
    <path id="Layer" fill-rule="evenodd" class="s2" d="m371.5 414.6l8.4-2.5v1.6l-6.1 1.7 6.1 1.8v1.4l-6.1 1.8 6.1 1.8v1.6l-8.4-2.5v-1.6l5.9-1.8-5.9-1.8zm8.6 10v1.6h-1.6v-1.6zm-2.6 0.1v1.5h-6v-1.5zm-6.1 2.8h6.1v1.5h-1c0.7 0.3 1.1 1 1.1 1.9 0 1.3-1 2.2-2.4 2.2h-3.8v-1.5h3.4c0.9 0 1.4-0.5 1.4-1.2 0-0.8-0.6-1.4-1.5-1.4h-3.3zm-0.1 9.5c0-1.8 1.3-2.9 3.1-2.9 1.9 0 3.2 1.1 3.2 2.9 0 0.7-0.4 1.4-0.9 1.7h3.3v1.5h-8.6v-1.5h0.8c-0.6-0.3-0.9-1-0.9-1.7zm3.1 1.8c1.1 0 1.9-0.7 1.9-1.6 0-0.9-0.8-1.6-1.9-1.6-1 0-1.8 0.7-1.8 1.6 0 0.9 0.8 1.6 1.8 1.6zm-3.1 5.6c0-1.7 1.4-3.1 3.1-3.1 1.8 0 3.2 1.4 3.2 3.1 0 1.8-1.4 3.2-3.2 3.2-1.7 0-3.1-1.4-3.1-3.2zm3.1 1.7c1.1 0 1.9-0.7 1.9-1.7 0-0.9-0.8-1.6-1.9-1.6-1 0-1.8 0.7-1.8 1.6 0 1 0.8 1.7 1.8 1.7zm-3 3.7l6.1-1.9v1.4l-4.1 1.1 4.1 1.2v1.4l-4.1 1.2 4.1 1.1v1.5l-6.1-2v-1.3l4.1-1.2-4.1-1.2zm-0.1 13.3c0-1.9 1.2-3.2 2.9-3.2v1.5c-0.9 0.1-1.5 0.7-1.5 1.7 0 0.9 0.4 1.5 1.1 1.5 1.8 0 0.5-4.5 3.8-4.5 1.3 0 2.3 1.2 2.3 2.9 0 1.8-1 3-2.6 3v-1.5c0.7 0 1.2-0.6 1.2-1.5 0-0.8-0.3-1.3-0.9-1.3-1.9 0-0.5 4.5-3.8 4.5-1.5 0-2.5-1.3-2.5-3.1zm2.1 8.3v1.4c-1.3-0.2-2.1-1.3-2.1-2.8 0-2 1.6-3.1 3.2-3.1 1.6 0 3.1 1 3.1 3 0 2-1.5 2.9-3 2.9q-0.3 0-0.5 0v-4.5c-0.9 0.1-1.6 0.7-1.6 1.7 0 0.7 0.3 1.2 0.9 1.4zm3-1.5c0-0.9-0.4-1.4-1.3-1.6v3c0.8 0 1.3-0.6 1.3-1.4zm1.2 6.3c0 1.6-0.9 2.7-2.3 2.7h-3.9v-1.5h0.9c-0.6-0.2-1-0.9-1-1.8 0-1.2 0.8-2 1.8-2 1.2 0 1.9 0.9 1.9 2.2v1.2c0 0.3 0.2 0.4 0.4 0.4 0.6 0 1-0.5 1-1.2 0-0.8-0.4-1.3-1-1.3v-1.3c1.2 0 2.2 1.1 2.2 2.6zm-5.2-0.3c0 1 0.7 1.5 1.6 1.5h0.1v-1.4c0-0.6-0.4-1-0.9-1-0.5 0-0.8 0.4-0.8 0.9zm6.9 4.8v1.5h-1.8v1.7h-1.3v-1.7h-2.6c-0.6 0-0.9 0.3-0.9 0.9v0.8h-1.3v-1c0-1.3 0.8-2.2 2.1-2.2h2.7v-1.2h1.3v1.2zm0.7 4.1v1.5h-1.6v-1.5zm-2.6 0v1.5h-6.1v-1.5zm-6 2.8h6v1.5h-0.9c0.7 0.3 1 1 1 1.9 0 1.3-0.9 2.2-2.4 2.2h-3.7v-1.4h3.4c0.9 0 1.4-0.5 1.4-1.3 0-0.8-0.6-1.4-1.5-1.4h-3.3zm6 11.3v1.5h-6.3c-1.3 0-2.2-0.9-2.2-2.3v-3h1.2v2.8c0 0.6 0.5 1 1.1 1h0.9c-0.5-0.3-0.8-1-0.8-1.7 0-1.9 1.3-2.9 3.1-2.9 1.9 0 3.1 1 3.1 2.8 0 0.8-0.3 1.5-0.7 1.8zm-3.1 0.1c1.1 0 1.9-0.7 1.9-1.6 0-0.9-0.8-1.6-1.9-1.6-1 0-1.8 0.7-1.8 1.6 0 0.9 0.8 1.6 1.8 1.6z"></path>
    <path id="Layer" fill-rule="evenodd" class="s2" d="m184.7 43.5v-8.4h5.5v1.4h-4v2.1h3.3v1.4h-3.3v3.5zm10-4.8h-1c-0.9 0-1.3 0.8-1.3 1.9v2.9h-1.4v-6h1.4v1c0.3-0.7 0.8-1 1.6-1h0.7zm0.3 1.7c0-1.7 1.4-3.1 3.2-3.1 1.7 0 3.1 1.4 3.1 3.1 0 1.8-1.4 3.2-3.1 3.2-1.8 0-3.2-1.4-3.2-3.2zm3.2 1.9c0.9 0 1.6-0.8 1.6-1.9 0-1-0.7-1.8-1.6-1.8-1 0-1.7 0.8-1.7 1.8 0 1.1 0.7 1.9 1.7 1.9zm4.1 1.2v-6.1h1.5v1c0.3-0.7 1-1.1 1.9-1.1 1.3 0 2.2 1 2.2 2.4v3.8h-1.4v-3.5c0-0.8-0.6-1.4-1.3-1.4-0.8 0-1.4 0.7-1.4 1.6v3.3zm7.5-7.9h1.4v1.8h1.7v1.3h-1.7v2.6c0 0.6 0.4 0.9 0.9 0.9h0.8v1.3h-0.9c-1.4 0-2.2-0.8-2.2-2.1v-2.7h-1.2v-1.3h1.2z"></path>
    <path id="Layer" fill-rule="evenodd" class="s2" d="m171.4 796.3l0.2 2.2h-1.5l-0.2-2.1c-0.1-0.6-0.5-1.1-1.2-1.1h-1.8v3.2h-1.6v-8.4h3.5c1.7 0 2.8 1.1 2.8 2.6 0 0.9-0.5 1.4-1.2 1.8 0.6 0.4 1 1 1 1.8zm-4.5-4.9v2.6h1.8c0.9 0 1.3-0.6 1.3-1.3 0-0.7-0.4-1.3-1.3-1.3zm10 5.1h1.4c-0.2 1.3-1.3 2.1-2.8 2.1-2 0-3.1-1.6-3.1-3.1 0-1.6 1-3.1 3-3.1 2 0 2.9 1.4 2.9 2.9q0 0.3 0 0.5h-4.5c0.1 0.9 0.8 1.6 1.7 1.6 0.7 0 1.2-0.3 1.4-0.9zm-1.5-3c-0.9 0-1.4 0.4-1.5 1.3h2.9c0-0.8-0.6-1.3-1.4-1.3zm6.1 5.1c-1.5 0-2.5-0.8-2.6-2.1h1.4c0 0.6 0.5 0.9 1.2 0.9 0.5 0 0.9-0.3 0.9-0.6 0-1.4-3.3-0.1-3.3-2.6 0-1.1 0.9-1.8 2.2-1.8 1.4 0 2.4 0.7 2.4 1.9h-1.3c-0.1-0.6-0.6-0.8-1.1-0.8-0.5 0-0.9 0.2-0.9 0.6 0 1.3 3.4-0.1 3.4 2.6 0 1.2-0.9 1.9-2.3 1.9zm6 0c-1.8 0-3-1.4-3-3.1 0-1.8 1.2-3.1 3-3.1 1.6 0 2.8 0.9 2.9 2.3h-1.4c-0.1-0.6-0.7-1.1-1.4-1.1-1 0-1.6 0.8-1.6 1.9 0 1 0.6 1.8 1.6 1.8 0.7 0 1.2-0.4 1.4-1h1.5c-0.2 1.3-1.4 2.3-3 2.3zm9.5-6.1v6h-1.4v-0.9c-0.4 0.6-1.1 1-1.9 1-1.4 0-2.3-1-2.3-2.4v-3.7h1.5v3.4c0 0.8 0.5 1.4 1.3 1.4 0.8 0 1.4-0.7 1.4-1.5v-3.3zm5.4 4h1.5c-0.2 1.3-1.4 2.1-2.9 2.1-1.9 0-3-1.6-3-3.1 0-1.6 0.9-3.1 2.9-3.1 2 0 3 1.4 3 2.9q0 0.3-0.1 0.5h-4.4c0.1 0.9 0.7 1.6 1.6 1.6 0.8 0 1.3-0.3 1.4-0.9zm-1.5-3c-0.8 0-1.3 0.4-1.5 1.3h3c-0.1-0.8-0.6-1.3-1.5-1.3zm6.7 5v-8.4h3.3c1.5 0 2.6 0.8 2.6 2.2 0 0.8-0.5 1.4-1 1.6 0.8 0.3 1.4 1 1.4 2.1 0 1.6-1.1 2.5-2.9 2.5zm1.6-5.1h1.6c0.8 0 1.2-0.4 1.2-1 0-0.7-0.4-1-1.3-1h-1.5zm0 3.7h1.6c1.1 0 1.6-0.4 1.6-1.2 0-0.8-0.5-1.2-1.6-1.2h-1.6zm5.5-1.6c0-1.8 1.4-3.1 3.1-3.1 1.8 0 3.2 1.3 3.2 3.1 0 1.7-1.4 3.1-3.2 3.1-1.7 0-3.1-1.4-3.1-3.1zm3.1 1.8c1 0 1.7-0.8 1.7-1.8 0-1-0.7-1.9-1.7-1.9-0.9 0-1.6 0.9-1.6 1.9 0 1 0.7 1.8 1.6 1.8zm6.6-4.9c1.6 0 2.6 0.8 2.6 2.2v3.9h-1.4v-0.9c-0.3 0.6-1 1-1.8 1-1.2 0-2-0.8-2-1.8 0-1.2 0.9-1.9 2.2-1.9h1.1c0.3 0 0.5-0.2 0.5-0.4 0-0.6-0.5-1-1.3-1-0.7 0-1.2 0.4-1.2 1h-1.3c0-1.2 1-2.1 2.6-2.1zm-0.3 5.1c0.9 0 1.5-0.6 1.5-1.6v-0.1h-1.4c-0.6 0-1 0.4-1 0.9 0 0.5 0.4 0.8 0.9 0.8zm4.8-6.9h1.5v1.8h1.7v1.3h-1.7v2.6c0 0.6 0.3 0.9 0.9 0.9h0.8v1.3h-1c-1.3 0-2.2-0.8-2.2-2.1v-2.7h-1.2v-1.3h1.2z"></path>
    <path id="Layer" fill-rule="evenodd" class="s2" d="m17.5 459.6l8.4-2.5v1.6l-6.1 1.7 6.1 1.8v1.4l-6.1 1.8 6.1 1.8v1.6l-8.4-2.5v-1.6l5.9-1.8-5.9-1.8zm8.6 10v1.6h-1.6v-1.6zm-2.6 0.1v1.5h-6v-1.5zm-6.1 2.8h6.1v1.5h-1c0.7 0.3 1.1 1 1.1 1.9 0 1.3-1 2.2-2.4 2.2h-3.8v-1.5h3.4c0.9 0 1.4-0.5 1.4-1.2 0-0.8-0.6-1.4-1.5-1.4h-3.3zm-0.1 9.5c0-1.8 1.3-2.9 3.1-2.9 1.9 0 3.2 1.1 3.2 2.9 0 0.7-0.4 1.4-0.9 1.7h3.3v1.5h-8.6v-1.5h0.8c-0.6-0.3-0.9-1-0.9-1.7zm3.1 1.8c1.1 0 1.9-0.7 1.9-1.6 0-0.9-0.8-1.6-1.9-1.6-1 0-1.8 0.7-1.8 1.6 0 0.9 0.8 1.6 1.8 1.6zm-3.1 5.6c0-1.7 1.4-3.1 3.1-3.1 1.8 0 3.2 1.4 3.2 3.1 0 1.8-1.4 3.2-3.2 3.2-1.7 0-3.1-1.4-3.1-3.2zm3.1 1.7c1.1 0 1.9-0.7 1.9-1.7 0-0.9-0.8-1.6-1.9-1.6-1 0-1.8 0.7-1.8 1.6 0 1 0.8 1.7 1.8 1.7zm-3 3.7l6.1-1.9v1.4l-4.1 1.1 4.1 1.2v1.4l-4.1 1.2 4.1 1.1v1.5l-6.1-2v-1.3l4.1-1.2-4.1-1.2zm-0.1 13.3c0-1.9 1.2-3.2 2.9-3.2v1.5c-0.9 0.1-1.5 0.7-1.5 1.7 0 0.9 0.4 1.5 1.1 1.5 1.8 0 0.5-4.5 3.8-4.5 1.3 0 2.3 1.2 2.3 2.9 0 1.8-1 3-2.6 3v-1.5c0.7 0 1.2-0.6 1.2-1.5 0-0.8-0.3-1.3-0.9-1.3-1.9 0-0.5 4.5-3.8 4.5-1.5 0-2.5-1.3-2.5-3.1zm2.1 8.3v1.4c-1.3-0.2-2.1-1.3-2.1-2.8 0-2 1.6-3.1 3.2-3.1 1.6 0 3.1 1 3.1 3 0 2-1.5 2.9-3 2.9q-0.3 0-0.5 0v-4.5c-0.9 0.1-1.6 0.7-1.6 1.7 0 0.7 0.3 1.2 0.9 1.4zm3-1.5c0-0.9-0.4-1.4-1.3-1.6v3c0.8 0 1.3-0.6 1.3-1.4zm1.2 6.3c0 1.6-0.9 2.7-2.3 2.7h-3.9v-1.5h0.9c-0.6-0.2-1-0.9-1-1.8 0-1.2 0.8-2 1.8-2 1.2 0 1.9 0.9 1.9 2.2v1.2c0 0.3 0.2 0.4 0.4 0.4 0.6 0 1-0.5 1-1.2 0-0.8-0.4-1.3-1-1.3v-1.3c1.2 0 2.2 1.1 2.2 2.6zm-5.2-0.3c0 1 0.7 1.5 1.6 1.5h0.1v-1.4c0-0.6-0.4-1-0.9-1-0.5 0-0.8 0.4-0.8 0.9zm6.9 4.8v1.5h-1.8v1.7h-1.3v-1.7h-2.6c-0.6 0-0.9 0.3-0.9 0.9v0.8h-1.3v-1c0-1.3 0.8-2.2 2.1-2.2h2.7v-1.2h1.3v1.2zm0.7 4.1v1.5h-1.6v-1.5zm-2.6 0v1.5h-6.1v-1.5zm-6 2.8h6v1.5h-0.9c0.7 0.3 1 1 1 1.9 0 1.3-0.9 2.2-2.4 2.2h-3.7v-1.4h3.4c0.9 0 1.4-0.5 1.4-1.3 0-0.8-0.6-1.4-1.5-1.4h-3.3zm6 11.3v1.5h-6.3c-1.3 0-2.2-0.9-2.2-2.3v-3h1.2v2.8c0 0.6 0.5 1 1.1 1h0.9c-0.5-0.3-0.8-1-0.8-1.7 0-1.9 1.3-2.9 3.1-2.9 1.9 0 3.1 1 3.1 2.8 0 0.8-0.3 1.5-0.7 1.8zm-3.1 0.1c1.1 0 1.9-0.7 1.9-1.6 0-0.9-0.8-1.6-1.9-1.6-1 0-1.8 0.7-1.8 1.6 0 0.9 0.8 1.6 1.8 1.6z"></path>
    <path id="Layer" fill-rule="evenodd" class="s3" d="m395 229.3v542.7c0 29.3-23.7 53-53 53h-288c-29.3 0-53-23.7-53-53v-542.7c0-76.9 41.3-147.9 108.2-185.8l62.6-35.6c16.3-9.2 36.1-9.2 52.4 0l62.6 35.6c66.9 37.9 108.2 108.9 108.2 185.8z"></path>
    <path id="Layer" fill-rule="evenodd" class="s3" d="m387 233.5v529c0 29.3-23.7 53-53 53h-271c-29.3 0-53-23.7-53-53v-529c0-76.2 40.5-146.5 106.4-184.8l55.5-32.2c16.4-9.5 36.8-9.5 53.2 0l55.5 32.2c65.9 38.3 106.4 108.6 106.4 184.8z"></path>
    <path id="Layer" class="s3" d="m395.5 683h-8"></path>
    <path id="Layer" class="s3" d="m9.5 683h-8"></path>
    <path id="Layer" class="s3" d="m395.5 229h-8"></path>
    <path id="Layer" class="s3" d="m9.5 229h-8"></path>
    <path id="Layer" class="s4" d="m391 682.5v-453"></path>
    <path id="Layer" class="s4" d="m6 682.5v-453"></path>
    <path id="Layer" class="s4" d="m1 682.5v-453"></path>
    <path id="Layer" class="s4" d="m395 682.5v-453"></path>
    <path id="Layer" class="s4" d="m10 682.5v-453"></path>
    <path id="Layer" class="s4" d="m387 682.5v-453"></path>
    <path id="Layer" fill-rule="evenodd" class="s3" d="m150.4 777h111.1c4.1 0 7.5 3.4 7.5 7.5v20c0 4.1-3.4 7.5-7.5 7.5h-111.1c-1.9 0-3.7-0.7-5-1.9l-11-10c-3.3-3-3.3-8.2 0-11.2l11-10c1.3-1.2 3.1-1.9 5-1.9z"></path>
  </g>
</svg>
