<?xml version="1.0" encoding="UTF-8"?>
<svg xmlns="http://www.w3.org/2000/svg" version="1.2" viewBox="0 0 113 208" width="113" height="208">
  <title>Rear-svg</title>
  <style>
		.s0 { opacity: .8;fill: #000000 } 
		.s1 { opacity: .6;fill: #a5a5a5 } 
		.s2 { fill: #000000 } 
		.s3 { opacity: .6;fill: #ffffff;stroke: #a5a5a5 } 
	</style>
  <path id="Layer" fill-rule="evenodd" class="s0" d="m3 157.6h5.9v-2.1h1.1v5.6h-1.1v-2.2h-5.9zm0 4.2h7.2v1.2h-2.9c0.5 0.3 0.8 0.9 0.8 1.6 0 1.1-0.8 1.9-2 1.9h-3.1v-1.3h2.9c0.6 0 1.1-0.4 1.1-1 0-0.7-0.5-1.2-1.3-1.2h-2.7zm7.2 5.7v1.3h-1.4v-1.3zm-7.2 0.1h5.1v1.2h-5.1zm-0.1 4.2c0-1.3 0.7-2.1 1.8-2.1v1.1c-0.5 0-0.8 0.4-0.8 1 0 0.4 0.3 0.8 0.6 0.8 1.1 0 0-2.8 2.1-2.8 0.9 0 1.5 0.8 1.5 1.8 0 1.2-0.6 2-1.6 2v-1.1c0.5 0 0.7-0.5 0.7-0.9 0-0.4-0.2-0.7-0.5-0.7-1.1 0 0.1 2.8-2.2 2.8-0.9 0-1.6-0.8-1.6-1.9zm0.1 6.1l5.1-1.6v1.3l-3.4 0.9 3.4 1v1.1l-3.4 1 3.4 0.9v1.2l-5.1-1.6v-1l3.4-1.1-3.4-1zm5.2 8.4c0 1.2-0.8 2.1-1.9 2.1h-3.3v-1.2h0.8c-0.5-0.2-0.9-0.8-0.9-1.5 0-1 0.7-1.7 1.6-1.7 0.9 0 1.5 0.8 1.5 1.9v1c0 0.2 0.2 0.3 0.4 0.3 0.5 0 0.8-0.4 0.8-1 0-0.7-0.4-1-0.8-1.1v-1.1c1 0.1 1.7 0.9 1.7 2.3zm-4.2-0.3c0 0.8 0.5 1.2 1.3 1.2v-1.1c0-0.5-0.3-0.9-0.7-0.9-0.4 0-0.6 0.3-0.6 0.8zm4.2 7.6l-4.8-1.7-2.3-0.8v-1.2l2 0.7 5.1-1.8v1.2l-3.5 1.2 3.5 1.2zm0 7.5h-5.1v-1.3h0.8c-0.5-0.3-0.9-0.8-0.9-1.5 0-1.2 0.9-1.9 2-1.9h3.2v1.2h-2.9c-0.7 0-1.2 0.4-1.2 1.1 0 0.6 0.6 1.1 1.3 1.1h2.8zm-7.1 1.2h7.1v1.2h-0.7c0.5 0.3 0.7 0.9 0.7 1.5 0 1.5-1 2.4-2.6 2.4-1.5 0-2.6-1-2.6-2.5 0-0.6 0.3-1.1 0.7-1.4h-2.6zm3 2.5c0 0.8 0.6 1.4 1.5 1.4 1 0 1.6-0.6 1.6-1.4 0-0.8-0.6-1.3-1.6-1.3-0.9 0-1.5 0.5-1.5 1.3z"></path>
  <path id="Layer" class="s1" d="m24 196h-0.5v0.5h0.5zm8 0v0.5h0.5v-0.5zm-7.5 0v-32h-1v32zm7-32v32h1v-32zm0.5 31.5h-8v1h8z"></path>
  <path id="Layer" class="s1" d="m40 196v0.5h0.5v-0.5zm-0.5-32v32h1v-32zm0.5 31.5h-8v1h8z"></path>
  <path id="Layer" class="s1" d="m48 196v0.5h0.5v-0.5zm-0.5-32v32h1v-32zm0.5 31.5h-8v1h8z"></path>
  <path id="Layer" class="s1" d="m56 196v0.5h0.5v-0.5zm-0.5-32v32h1v-32zm0.5 31.5h-8v1h8z"></path>
  <path id="Layer" class="s1" d="m64 196v0.5h0.5v-0.5zm-8 0.5h1v-1h-1zm3 0h2v-1h-2zm4 0h1v-1h-1zm1.5-0.5v-1h-1v1zm0-3v-2h-1v2zm0-4v-2h-1v2zm0-4v-2h-1v2zm0-4v-2h-1v2zm0-4v-2h-1v2zm0-4v-2h-1v2zm0-4v-2h-1v2zm0-4v-1h-1v1z"></path>
  <path id="Layer" class="s1" d="m72 196v0.5h0.5v-0.5zm-8 0.5h1v-1h-1zm3 0h2v-1h-2zm4 0h1v-1h-1zm1.5-0.5v-1h-1v1zm0-3v-2h-1v2zm0-4v-2h-1v2zm0-4v-2h-1v2zm0-4v-2h-1v2zm0-4v-2h-1v2zm0-4v-2h-1v2zm0-4v-2h-1v2zm0-4v-1h-1v1z"></path>
  <path id="Layer" class="s1" d="m88 196v0.5h0.5v-0.5zm-8 0.5h1v-1h-1zm3 0h2v-1h-2zm4 0h1v-1h-1zm1.5-0.5v-1h-1v1zm0-3v-2h-1v2zm0-4v-2h-1v2zm0-4v-2h-1v2zm0-4v-2h-1v2zm0-4v-2h-1v2zm0-4v-2h-1v2zm0-4v-2h-1v2zm0-4v-1h-1v1z"></path>
  <path id="Layer" class="s1" d="m104 196v0.5h0.5v-0.5zm-8 0.5h1v-1h-1zm3 0h2v-1h-2zm4 0h1v-1h-1zm1.5-0.5v-1h-1v1zm0-3v-2h-1v2zm0-4v-2h-1v2zm0-4v-2h-1v2zm0-4v-2h-1v2zm0-4v-2h-1v2zm0-4v-2h-1v2zm0-4v-2h-1v2zm0-4v-1h-1v1z"></path>
  <path id="Layer" class="s1" d="m80 196v0.5h0.5v-0.5zm-8 0.5h1v-1h-1zm3 0h2v-1h-2zm4 0h1v-1h-1zm1.5-0.5v-1h-1v1zm0-3v-2h-1v2zm0-4v-2h-1v2zm0-4v-2h-1v2zm0-4v-2h-1v2zm0-4v-2h-1v2zm0-4v-2h-1v2zm0-4v-2h-1v2zm0-4v-1h-1v1z"></path>
  <path id="Layer" class="s1" d="m96 196v0.5h0.5v-0.5zm-8 0.5h1v-1h-1zm3 0h2v-1h-2zm4 0h1v-1h-1zm1.5-0.5v-1h-1v1zm0-3v-2h-1v2zm0-4v-2h-1v2zm0-4v-2h-1v2zm0-4v-2h-1v2zm0-4v-2h-1v2zm0-4v-2h-1v2zm0-4v-2h-1v2zm0-4v-1h-1v1z"></path>
  <path id="Layer" class="s1" d="m112 196v0.5h0.5v-0.5zm-8 0.5h1v-1h-1zm3 0h2v-1h-2zm4 0h1v-1h-1zm1.5-0.5v-1h-1v1zm0-3v-2h-1v2zm0-4v-2h-1v2zm0-4v-2h-1v2zm0-4v-2h-1v2zm0-4v-2h-1v2zm0-4v-2h-1v2zm0-4v-2h-1v2zm0-4v-1h-1v1z"></path>
  <path id="Layer" class="s2" d="m37.4 182.4c0.1-0.2 0.1-0.6 0-0.8l-3.2-3.1c-0.2-0.2-0.5-0.2-0.7 0-0.2 0.2-0.2 0.5 0 0.7l2.8 2.8-2.8 2.8c-0.2 0.2-0.2 0.5 0 0.7 0.2 0.2 0.5 0.2 0.7 0zm-23.4 0.2h23v-1h-23z"></path>
  <path id="Layer" class="s3" d="m14.5 0.5h98v163h-98z"></path>
  <path id="Layer" fill-rule="evenodd" class="s0" d="m64.8 87.6l2.2-0.2v1.6l-2.1 0.2c-0.6 0-1.1 0.5-1.1 1.1v1.8h3.2v1.6h-8.4v-3.4c0-1.8 1.1-2.8 2.6-2.8 0.9 0 1.4 0.4 1.8 1.1 0.4-0.6 1-0.9 1.8-1zm-4.9 4.5h2.6v-1.8c0-0.9-0.6-1.3-1.3-1.3-0.7 0-1.3 0.4-1.3 1.3zm5.1-10v-1.4c1.3 0.2 2.1 1.4 2.1 2.8 0 2-1.6 3.1-3.1 3.1-1.6 0-3.1-1-3.1-2.9 0-2.1 1.4-3 2.9-3q0.3 0 0.5 0.1v4.4c0.9-0.1 1.6-0.7 1.6-1.7 0-0.7-0.3-1.2-0.9-1.4zm-3 1.6c0 0.8 0.4 1.3 1.3 1.5v-3c-0.8 0.1-1.3 0.6-1.3 1.5zm-1.1-6.4c0-1.5 0.8-2.6 2.2-2.6h3.9v1.4h-0.9c0.6 0.3 1 1 1 1.8 0 1.2-0.8 2.1-1.8 2.1-1.2 0-1.9-1-1.9-2.3v-1.1c0-0.3-0.2-0.5-0.4-0.5-0.6 0-1 0.5-1 1.3 0 0.7 0.5 1.2 1 1.2v1.4c-1.2-0.1-2.1-1.1-2.1-2.7zm5.1 0.3c0-0.9-0.6-1.5-1.6-1.5h-0.1v1.4c0 0.6 0.4 1 0.9 1 0.5 0 0.8-0.4 0.8-0.9zm-3.8-7.9v1c0 0.9 0.8 1.3 1.9 1.3h2.9v1.4h-6v-1.4h1c-0.7-0.3-1-0.8-1-1.6v-0.7z"></path>
</svg>
