<?xml version="1.0" encoding="UTF-8"?>
<svg xmlns="http://www.w3.org/2000/svg" width="108" height="107" viewBox="0 0 108 107" fill="none">
  <path opacity="0.8" d="M105 50.3789L99.14 50.3789L99.14 52.4989L98 52.4989L98 46.9489L99.14 46.9489L99.14 49.0589L105 49.0589L105 50.3789ZM105 46.2364L97.8 46.2364L97.8 45.0164L100.74 45.0164C100.19 44.7364 99.88 44.1564 99.88 43.4364C99.88 42.3064 100.7 41.5664 101.88 41.5664L105 41.5664L105 42.7864L102.14 42.7864C101.45 42.7864 100.97 43.2164 100.97 43.8464C100.97 44.5264 101.51 45.0164 102.25 45.0164L105 45.0164L105 46.2364ZM97.8 40.5166L97.8 39.1966L99.17 39.1966L99.17 40.5166L97.8 40.5166ZM105 40.4666L99.96 40.4666L99.96 39.2366L105 39.2366L105 40.4666ZM105.08 36.3126C105.08 37.5326 104.4 38.3426 103.32 38.4026L103.32 37.2826C103.8 37.2326 104.1 36.8626 104.1 36.3126C104.1 35.8326 103.86 35.5126 103.56 35.5126C102.44 35.5126 103.51 38.2726 101.38 38.2726C100.5 38.2726 99.88 37.5026 99.88 36.4626C99.88 35.2826 100.53 34.4726 101.51 34.4226L101.51 35.5426C101.04 35.6126 100.8 36.0426 100.8 36.4326C100.8 36.8726 101 37.1626 101.34 37.1626C102.43 37.1626 101.23 34.3626 103.51 34.3626C104.46 34.3626 105.08 35.1326 105.08 36.3126ZM105 30.1262L99.96 31.7362L99.96 30.5062L103.33 29.5862L99.96 28.5962L99.96 27.4662L103.33 26.4762L99.96 25.5462L99.96 24.3262L105 25.9262L105 27.0162L101.61 28.0262L105 29.0462L105 30.1262ZM99.88 21.7955C99.88 20.5155 100.62 19.6155 101.76 19.6155L105 19.6155L105 20.8255L104.25 20.8255C104.75 21.0355 105.08 21.6155 105.08 22.3355C105.08 23.3355 104.44 24.0155 103.57 24.0155C102.59 24.0155 101.98 23.2555 101.98 22.1255L101.98 21.1955C101.98 20.9455 101.84 20.8255 101.64 20.8255C101.15 20.8255 100.8 21.2055 100.8 21.8555C100.8 22.5055 101.21 22.8955 101.66 22.9155L101.66 24.0155C100.66 23.9555 99.88 23.1055 99.88 21.7955ZM104.17 22.0455C104.17 21.2755 103.63 20.8255 102.87 20.8255L102.79 20.8255L102.79 21.9555C102.79 22.4755 103.08 22.8255 103.52 22.8255C103.91 22.8255 104.17 22.5055 104.17 22.0455ZM99.96 14.4364L104.76 16.1964L107.04 16.9764L107.04 18.1464L105 17.4364L99.96 19.2764L99.96 18.0264L103.42 16.8564L99.96 15.6964L99.96 14.4364ZM99.96 6.93895L105 6.93894L105 8.16894L104.22 8.16894C104.77 8.44894 105.08 9.01894 105.08 9.73894C105.08 10.8689 104.26 11.6089 103.08 11.6089L99.96 11.6089L99.96 10.3889L102.82 10.3889C103.51 10.3889 103.99 9.95894 103.99 9.33894C103.99 8.64894 103.45 8.16895 102.71 8.16895L99.96 8.16895L99.96 6.93895ZM107.04 5.76769L99.96 5.7677L99.96 4.5477L100.59 4.5477C100.16 4.2477 99.88 3.69769 99.88 3.02769C99.88 1.57769 100.94 0.687695 102.48 0.687695C104.02 0.687695 105.08 1.63769 105.08 3.11769C105.08 3.72769 104.84 4.26769 104.45 4.54769L107.04 4.54769L107.04 5.76769ZM104.02 3.25769C104.02 2.44769 103.41 1.90769 102.48 1.90769C101.55 1.9077 100.94 2.44769 100.94 3.25769C100.94 4.0877 101.55 4.6277 102.48 4.62769C103.41 4.62769 104.02 4.0877 104.02 3.25769Z" fill="black"></path>
  <path opacity="0.8" d="M1.30638 103L1.30638 91.8H3.43438L3.43438 101.16H8.66638V103H1.30638ZM17.1649 94.936V103H15.1969V101.752C14.7489 102.632 13.8369 103.128 12.6849 103.128C10.8769 103.128 9.69288 101.816 9.69288 99.928L9.69288 94.936H11.6449L11.6449 99.512C11.6449 100.616 12.3329 101.384 13.3249 101.384C14.4289 101.384 15.1969 100.52 15.1969 99.336L15.1969 94.936H17.1649ZM26.0964 103H24.0164L22.1284 100.312L20.2404 103H18.1444L21.0564 98.792L18.3684 94.936H20.5124L22.1284 97.256L23.7284 94.936H25.8884L23.1844 98.792L26.0964 103ZM34.5555 94.936V103H32.5875V101.752C32.1395 102.632 31.2275 103.128 30.0755 103.128C28.2675 103.128 27.0835 101.816 27.0835 99.928V94.936H29.0355V99.512C29.0355 100.616 29.7235 101.384 30.7155 101.384C31.8195 101.384 32.5875 100.52 32.5875 99.336V94.936H34.5555ZM41.2935 96.584H40.0295C38.7815 96.584 38.2855 97.656 38.2855 99.192V103H36.3175V94.936H38.2855V96.36C38.6855 95.336 39.3095 94.936 40.3495 94.936H41.2935V96.584ZM49.4189 94.936L46.6029 102.616L45.3549 106.264H43.4829L44.6189 103L41.6749 94.936H43.6749L45.5469 100.472L47.4029 94.936H49.4189ZM59.1749 103.128C56.1989 103.128 53.6229 101.208 53.6229 97.4C53.6229 93.592 56.2469 91.672 59.1749 91.672C61.8789 91.672 63.9269 93.256 64.2309 95.576H62.0229C61.8629 94.344 60.6789 93.496 59.1749 93.496C57.2229 93.496 55.7509 94.856 55.7509 97.4C55.7509 99.944 57.2229 101.288 59.1749 101.288C60.7109 101.288 61.8949 100.44 62.0869 99.224H64.1989C63.9749 101.544 61.9269 103.128 59.1749 103.128ZM65.6639 103V91.48H67.6159V103H65.6639ZM72.7069 94.808C74.7549 94.808 76.1949 95.992 76.1949 97.816V103H74.2589V101.8C73.9229 102.6 72.9949 103.128 71.8429 103.128C70.2429 103.128 69.1549 102.104 69.1549 100.712C69.1549 99.144 70.3709 98.168 72.1789 98.168H73.6669C74.0669 98.168 74.2589 97.944 74.2589 97.624C74.2589 96.84 73.6509 96.28 72.6109 96.28C71.5709 96.28 70.9469 96.936 70.9149 97.656H69.1549C69.2509 96.056 70.6109 94.808 72.7069 94.808ZM72.3069 101.672C73.5389 101.672 74.2589 100.808 74.2589 99.592V99.464H72.4509C71.6189 99.464 71.0589 99.928 71.0589 100.632C71.0589 101.256 71.5709 101.672 72.3069 101.672ZM80.7451 103.128C78.7931 103.128 77.4971 102.04 77.4011 100.312H79.1931C79.2731 101.08 79.8651 101.56 80.7451 101.56C81.5131 101.56 82.0251 101.176 82.0251 100.696C82.0251 98.904 77.6091 100.616 77.6091 97.208C77.6091 95.8 78.8411 94.808 80.5051 94.808C82.3931 94.808 83.6891 95.848 83.7691 97.416H81.9771C81.8651 96.664 81.1771 96.28 80.5531 96.28C79.8491 96.28 79.3851 96.6 79.3851 97.144C79.3851 98.888 83.8651 96.968 83.8651 100.616C83.8651 102.136 82.6331 103.128 80.7451 103.128ZM88.1514 103.128C86.1994 103.128 84.9034 102.04 84.8074 100.312H86.5994C86.6794 101.08 87.2714 101.56 88.1514 101.56C88.9194 101.56 89.4314 101.176 89.4314 100.696C89.4314 98.904 85.0154 100.616 85.0154 97.208C85.0154 95.8 86.2474 94.808 87.9114 94.808C89.7994 94.808 91.0954 95.848 91.1754 97.416H89.3834C89.2714 96.664 88.5834 96.28 87.9594 96.28C87.2554 96.28 86.7914 96.6 86.7914 97.144C86.7914 98.888 91.2714 96.968 91.2714 100.616C91.2714 102.136 90.0394 103.128 88.1514 103.128Z" fill="black"></path>
  <path opacity="0.6" d="M86 10L86.5 10L86.5 9.5L86 9.5L86 10ZM78 10L78 9.5L77.5 9.5L77.5 10L78 10ZM85.5 10L85.5 42L86.5 42L86.5 10L85.5 10ZM78.5 42L78.5 10L77.5 10L77.5 42L78.5 42ZM78 10.5L86 10.5L86 9.5L78 9.5L78 10.5Z" fill="#A5A5A5"></path>
  <path opacity="0.6" d="M70 10L70 9.5L69.5 9.5L69.5 10L70 10ZM70.5 42L70.5 10L69.5 10L69.5 42L70.5 42ZM70 10.5L78 10.5L78 9.5L70 9.5L70 10.5Z" fill="#A5A5A5"></path>
  <path opacity="0.6" d="M62 10L62 9.5L61.5 9.5L61.5 10L62 10ZM62.5 42L62.5 10L61.5 10L61.5 42L62.5 42ZM62 10.5L70 10.5L70 9.5L62 9.5L62 10.5Z" fill="#A5A5A5"></path>
  <path opacity="0.6" d="M54 10L54 9.5L53.5 9.5L53.5 10L54 10ZM54.5 42L54.5 10L53.5 10L53.5 42L54.5 42ZM54 10.5L62 10.5L62 9.5L54 9.5L54 10.5Z" fill="#A5A5A5"></path>
  <path opacity="0.6" d="M46 10L46 9.5L45.5 9.5L45.5 10L46 10ZM54 9.5L53 9.5L53 10.5L54 10.5L54 9.5ZM51 9.5L49 9.5L49 10.5L51 10.5L51 9.5ZM47 9.5L46 9.5L46 10.5L47 10.5L47 9.5ZM45.5 10L45.5 11L46.5 11L46.5 10L45.5 10ZM45.5 13L45.5 15L46.5 15L46.5 13L45.5 13ZM45.5 17L45.5 19L46.5 19L46.5 17L45.5 17ZM45.5 21L45.5 23L46.5 23L46.5 21L45.5 21ZM45.5 25L45.5 27L46.5 27L46.5 25L45.5 25ZM45.5 29L45.5 31L46.5 31L46.5 29L45.5 29ZM45.5 33L45.5 35L46.5 35L46.5 33L45.5 33ZM45.5 37L45.5 39L46.5 39L46.5 37L45.5 37ZM45.5 41L45.5 42L46.5 42L46.5 41L45.5 41Z" fill="#A5A5A5"></path>
  <path opacity="0.6" d="M46 74L46 74.5L45.5 74.5L45.5 74L46 74ZM54 74.5L53 74.5L53 73.5L54 73.5L54 74.5ZM51 74.5L49 74.5L49 73.5L51 73.5L51 74.5ZM47 74.5L46 74.5L46 73.5L47 73.5L47 74.5ZM45.5 74L45.5 73L46.5 73L46.5 74L45.5 74ZM45.5 71L45.5 69L46.5 69L46.5 71L45.5 71ZM45.5 67L45.5 65L46.5 65L46.5 67L45.5 67ZM45.5 63L45.5 61L46.5 61L46.5 63L45.5 63ZM45.5 59L45.5 57L46.5 57L46.5 59L45.5 59ZM45.5 55L45.5 53L46.5 53L46.5 55L45.5 55ZM45.5 51L45.5 49L46.5 49L46.5 51L45.5 51ZM45.5 47L45.5 45L46.5 45L46.5 47L45.5 47ZM45.5 43L45.5 42L46.5 42L46.5 43L45.5 43Z" fill="#A5A5A5"></path>
  <path opacity="0.6" d="M86 74L86.5 74L86.5 74.5L86 74.5L86 74ZM78 74L78 74.5L77.5 74.5L77.5 74L78 74ZM86 74.5L85 74.5L85 73.5L86 73.5L86 74.5ZM83 74.5L81 74.5L81 73.5L83 73.5L83 74.5ZM79 74.5L78 74.5L78 73.5L79 73.5L79 74.5ZM77.5 74L77.5 73L78.5 73L78.5 74L77.5 74ZM77.5 71L77.5 69L78.5 69L78.5 71L77.5 71ZM77.5 67L77.5 65L78.5 65L78.5 67L77.5 67ZM77.5 63L77.5 61L78.5 61L78.5 63L77.5 63ZM77.5 59L77.5 57L78.5 57L78.5 59L77.5 59ZM77.5 55L77.5 53L78.5 53L78.5 55L77.5 55ZM77.5 51L77.5 49L78.5 49L78.5 51L77.5 51ZM77.5 47L77.5 45L78.5 45L78.5 47L77.5 47ZM77.5 43L77.5 42L78.5 42L78.5 43L77.5 43ZM86.5 42L86.5 43L85.5 43L85.5 42L86.5 42ZM86.5 45L86.5 47L85.5 47L85.5 45L86.5 45ZM86.5 49L86.5 51L85.5 51L85.5 49L86.5 49ZM86.5 53L86.5 55L85.5 55L85.5 53L86.5 53ZM86.5 57L86.5 59L85.5 59L85.5 57L86.5 57ZM86.5 61L86.5 63L85.5 63L85.5 61L86.5 61ZM86.5 65L86.5 67L85.5 67L85.5 65L86.5 65ZM86.5 69L86.5 71L85.5 71L85.5 69L86.5 69ZM86.5 73L86.5 74L85.5 74L85.5 73L86.5 73Z" fill="#A5A5A5"></path>
  <path opacity="0.6" d="M38 10L38 9.5L37.5 9.5L37.5 10L38 10ZM46 9.5L45 9.5L45 10.5L46 10.5L46 9.5ZM43 9.5L41 9.5L41 10.5L43 10.5L43 9.5ZM39 9.5L38 9.5L38 10.5L39 10.5L39 9.5ZM37.5 10L37.5 11L38.5 11L38.5 10L37.5 10ZM37.5 13L37.5 15L38.5 15L38.5 13L37.5 13ZM37.5 17L37.5 19L38.5 19L38.5 17L37.5 17ZM37.5 21L37.5 23L38.5 23L38.5 21L37.5 21ZM37.5 25L37.5 27L38.5 27L38.5 25L37.5 25ZM37.5 29L37.5 31L38.5 31L38.5 29L37.5 29ZM37.5 33L37.5 35L38.5 35L38.5 33L37.5 33ZM37.5 37L37.5 39L38.5 39L38.5 37L37.5 37ZM37.5 41L37.5 42L38.5 42L38.5 41L37.5 41Z" fill="#A5A5A5"></path>
  <path opacity="0.6" d="M38 74L38 74.5L37.5 74.5L37.5 74L38 74ZM46 74.5L45 74.5L45 73.5L46 73.5L46 74.5ZM43 74.5L41 74.5L41 73.5L43 73.5L43 74.5ZM39 74.5L38 74.5L38 73.5L39 73.5L39 74.5ZM37.5 74L37.5 73L38.5 73L38.5 74L37.5 74ZM37.5 71L37.5 69L38.5 69L38.5 71L37.5 71ZM37.5 67L37.5 65L38.5 65L38.5 67L37.5 67ZM37.5 63L37.5 61L38.5 61L38.5 63L37.5 63ZM37.5 59L37.5 57L38.5 57L38.5 59L37.5 59ZM37.5 55L37.5 53L38.5 53L38.5 55L37.5 55ZM37.5 51L37.5 49L38.5 49L38.5 51L37.5 51ZM37.5 47L37.5 45L38.5 45L38.5 47L37.5 47ZM37.5 43L37.5 42L38.5 42L38.5 43L37.5 43Z" fill="#A5A5A5"></path>
  <path opacity="0.6" d="M70 74L70 74.5L69.5 74.5L69.5 74L70 74ZM78 74.5L77 74.5L77 73.5L78 73.5L78 74.5ZM75 74.5L73 74.5L73 73.5L75 73.5L75 74.5ZM71 74.5L70 74.5L70 73.5L71 73.5L71 74.5ZM69.5 74L69.5 73L70.5 73L70.5 74L69.5 74ZM69.5 71L69.5 69L70.5 69L70.5 71L69.5 71ZM69.5 67L69.5 65L70.5 65L70.5 67L69.5 67ZM69.5 63L69.5 61L70.5 61L70.5 63L69.5 63ZM69.5 59L69.5 57L70.5 57L70.5 59L69.5 59ZM69.5 55L69.5 53L70.5 53L70.5 55L69.5 55ZM69.5 51L69.5 49L70.5 49L70.5 51L69.5 51ZM69.5 47L69.5 45L70.5 45L70.5 47L69.5 47ZM69.5 43L69.5 42L70.5 42L70.5 43L69.5 43Z" fill="#A5A5A5"></path>
  <path opacity="0.6" d="M30 10L30 9.5L29.5 9.5L29.5 10L30 10ZM38 9.5L37 9.5L37 10.5L38 10.5L38 9.5ZM35 9.5L33 9.5L33 10.5L35 10.5L35 9.5ZM31 9.5L30 9.5L30 10.5L31 10.5L31 9.5ZM29.5 10L29.5 11L30.5 11L30.5 10L29.5 10ZM29.5 13L29.5 15L30.5 15L30.5 13L29.5 13ZM29.5 17L29.5 19L30.5 19L30.5 17L29.5 17ZM29.5 21L29.5 23L30.5 23L30.5 21L29.5 21ZM29.5 25L29.5 27L30.5 27L30.5 25L29.5 25ZM29.5 29L29.5 31L30.5 31L30.5 29L29.5 29ZM29.5 33L29.5 35L30.5 35L30.5 33L29.5 33ZM29.5 37L29.5 39L30.5 39L30.5 37L29.5 37ZM29.5 41L29.5 42L30.5 42L30.5 41L29.5 41Z" fill="#A5A5A5"></path>
  <path opacity="0.6" d="M30 74L30 74.5L29.5 74.5L29.5 74L30 74ZM38 74.5L37 74.5L37 73.5L38 73.5L38 74.5ZM35 74.5L33 74.5L33 73.5L35 73.5L35 74.5ZM31 74.5L30 74.5L30 73.5L31 73.5L31 74.5ZM29.5 74L29.5 73L30.5 73L30.5 74L29.5 74ZM29.5 71L29.5 69L30.5 69L30.5 71L29.5 71ZM29.5 67L29.5 65L30.5 65L30.5 67L29.5 67ZM29.5 63L29.5 61L30.5 61L30.5 63L29.5 63ZM29.5 59L29.5 57L30.5 57L30.5 59L29.5 59ZM29.5 55L29.5 53L30.5 53L30.5 55L29.5 55ZM29.5 51L29.5 49L30.5 49L30.5 51L29.5 51ZM29.5 47L29.5 45L30.5 45L30.5 47L29.5 47ZM29.5 43L29.5 42L30.5 42L30.5 43L29.5 43Z" fill="#A5A5A5"></path>
  <path opacity="0.6" d="M62 74L62 74.5L61.5 74.5L61.5 74L62 74ZM70 74.5L69 74.5L69 73.5L70 73.5L70 74.5ZM67 74.5L65 74.5L65 73.5L67 73.5L67 74.5ZM63 74.5L62 74.5L62 73.5L63 73.5L63 74.5ZM61.5 74L61.5 73L62.5 73L62.5 74L61.5 74ZM61.5 71L61.5 69L62.5 69L62.5 71L61.5 71ZM61.5 67L61.5 65L62.5 65L62.5 67L61.5 67ZM61.5 63L61.5 61L62.5 61L62.5 63L61.5 63ZM61.5 59L61.5 57L62.5 57L62.5 59L61.5 59ZM61.5 55L61.5 53L62.5 53L62.5 55L61.5 55ZM61.5 51L61.5 49L62.5 49L62.5 51L61.5 51ZM61.5 47L61.5 45L62.5 45L62.5 47L61.5 47ZM61.5 43L61.5 42L62.5 42L62.5 43L61.5 43Z" fill="#A5A5A5"></path>
  <path opacity="0.6" d="M22 10L22 9.5L21.5 9.5L21.5 10L22 10ZM30 9.5L29 9.5L29 10.5L30 10.5L30 9.5ZM27 9.5L25 9.5L25 10.5L27 10.5L27 9.5ZM23 9.5L22 9.5L22 10.5L23 10.5L23 9.5ZM21.5 10L21.5 11L22.5 11L22.5 10L21.5 10ZM21.5 13L21.5 15L22.5 15L22.5 13L21.5 13ZM21.5 17L21.5 19L22.5 19L22.5 17L21.5 17ZM21.5 21L21.5 23L22.5 23L22.5 21L21.5 21ZM21.5 25L21.5 27L22.5 27L22.5 25L21.5 25ZM21.5 29L21.5 31L22.5 31L22.5 29L21.5 29ZM21.5 33L21.5 35L22.5 35L22.5 33L21.5 33ZM21.5 37L21.5 39L22.5 39L22.5 37L21.5 37ZM21.5 41L21.5 42L22.5 42L22.5 41L21.5 41Z" fill="#A5A5A5"></path>
  <path opacity="0.6" d="M22 74L22 74.5L21.5 74.5L21.5 74L22 74ZM30 74.5L29 74.5L29 73.5L30 73.5L30 74.5ZM27 74.5L25 74.5L25 73.5L27 73.5L27 74.5ZM23 74.5L22 74.5L22 73.5L23 73.5L23 74.5ZM21.5 74L21.5 73L22.5 73L22.5 74L21.5 74ZM21.5 71L21.5 69L22.5 69L22.5 71L21.5 71ZM21.5 67L21.5 65L22.5 65L22.5 67L21.5 67ZM21.5 63L21.5 61L22.5 61L22.5 63L21.5 63ZM21.5 59L21.5 57L22.5 57L22.5 59L21.5 59ZM21.5 55L21.5 53L22.5 53L22.5 55L21.5 55ZM21.5 51L21.5 49L22.5 49L22.5 51L21.5 51ZM21.5 47L21.5 45L22.5 45L22.5 47L21.5 47ZM21.5 43L21.5 42L22.5 42L22.5 43L21.5 43Z" fill="#A5A5A5"></path>
  <path opacity="0.6" d="M54 74L54 74.5L53.5 74.5L53.5 74L54 74ZM62 74.5L61 74.5L61 73.5L62 73.5L62 74.5ZM59 74.5L57 74.5L57 73.5L59 73.5L59 74.5ZM55 74.5L54 74.5L54 73.5L55 73.5L55 74.5ZM53.5 74L53.5 73L54.5 73L54.5 74L53.5 74ZM53.5 71L53.5 69L54.5 69L54.5 71L53.5 71ZM53.5 67L53.5 65L54.5 65L54.5 67L53.5 67ZM53.5 63L53.5 61L54.5 61L54.5 63L53.5 63ZM53.5 59L53.5 57L54.5 57L54.5 59L53.5 59ZM53.5 55L53.5 53L54.5 53L54.5 55L53.5 55ZM53.5 51L53.5 49L54.5 49L54.5 51L53.5 51ZM53.5 47L53.5 45L54.5 45L54.5 47L53.5 47ZM53.5 43L53.5 42L54.5 42L54.5 43L53.5 43Z" fill="#A5A5A5"></path>
  <path d="M72.6464 26.6464C72.4512 26.8417 72.4512 27.1583 72.6464 27.3536L75.8284 30.5355C76.0237 30.7308 76.3403 30.7308 76.5355 30.5355C76.7308 30.3403 76.7308 30.0237 76.5355 29.8284L73.7071 27L76.5355 24.1716C76.7308 23.9763 76.7308 23.6597 76.5355 23.4645C76.3403 23.2692 76.0237 23.2692 75.8284 23.4645L72.6464 26.6464ZM96 26.5L73 26.5L73 27.5L96 27.5L96 26.5Z" fill="black"></path>
  <line opacity="0.6" x1="86" y1="42.5" x2="21" y2="42.5" stroke="#A5A5A5"></line>
</svg>
