<?xml version="1.0" encoding="UTF-8"?>
<!DOCTYPE svg PUBLIC "-//W3C//DTD SVG 1.1//EN" "http://www.w3.org/Graphics/SVG/1.1/DTD/svg11.dtd">
<!-- Creator: CorelDRAW 2019 (64-Bit) -->
<svg xmlns="http://www.w3.org/2000/svg" xml:space="preserve" width="0.41276in" height="0.380575in" version="1.1" style="shape-rendering:geometricPrecision; text-rendering:geometricPrecision; image-rendering:optimizeQuality; fill-rule:evenodd; clip-rule:evenodd"
viewBox="0 0 87.25 80.45"
 xmlns:xlink="http://www.w3.org/1999/xlink"
 xmlns:xodm="http://www.corel.com/coreldraw/odm/2003">
 <defs>
  <style type="text/css">
   <![CDATA[
    .fil1 {fill:#867EBA}
    .fil0 {fill:#393185}
   ]]>
  </style>
 </defs>
 <g id="Layer_x0020_1">
  <metadata id="CorelCorpID_0Corel-Layer"/>
  <path class="fil0" d="M16.41 71.45c0,-3.07 1.7,-4.6 4.8,-4.6l44.83 0c6.82,0 5.81,8.41 0.8,8.41l-46.43 0c-2.06,0 -4,-1.71 -4,-3.8zm59.64 -6.6l0 -22.21 6 0 0 22.21c0,4.83 -6,4.83 -6,0zm-70.85 0l0 -22.21 6 0 0 22.21c0,4.83 -6,4.83 -6,0zm11.81 -2.6c0,-2.95 0.52,-7.03 0.6,-10.21 0.02,-1 0.19,-1 0.21,-1.99 0.09,-3.54 0.8,-9.69 0.79,-12.22l1.23 -18.38c0.56,-5.11 -0.21,-8.59 3.22,-11.99 1.51,-1.5 3.61,-2.25 6.56,-2.25l28.62 0c2.85,0 4.84,0.85 6.36,2.25 3.29,3.04 2.45,5.84 2.99,9.81 0.1,0.74 0.01,1.41 0.05,2.15l0.69 10.32c0.35,2.28 0.21,4.85 0.35,6.06l1.36 20.25c0.12,1.44 0.01,4.47 0.41,6.19 -1.09,-0.09 -1.53,-0.6 -3.4,-0.6l-46.83 0c-1.45,0 -2.09,0.34 -3.2,0.6zm-3.6 -24.82l-13.41 0 0 28.42c0,4.13 4.01,7.81 7.2,7.81 2.97,0 3.19,-0.38 4.2,-0.4 0.07,3.18 4.43,7.2 8.21,7.2l48.03 0c3.77,0 8.13,-4.01 8.21,-7.2 1.69,0.04 5.62,1.73 9.16,-2.04 1.04,-1.1 2.24,-3.3 2.24,-5.36l0 -28.42 -13.21 0 -0.63 -12.18c-0.21,-1.9 -0.26,-3.93 -0.37,-6.03 -0.05,-1 -0.16,-1.74 -0.19,-3.01 -0.02,-0.83 -0.11,-0.83 -0.18,-1.42 -0.07,-0.59 -0,-1.18 -0.03,-1.77 -0.31,-6.84 -6.23,-13.01 -12.81,-13.01l-32.02 0c-3.01,0 -6.85,1.93 -8.86,3.94 -0.82,0.82 -2.09,2.7 -2.61,3.79 -1.37,2.86 -1.7,8 -1.73,11.28 -0.04,4.72 -1.2,13.42 -1.2,18.41z"/>
  <path class="fil1" d="M20.21 61.64l46.83 0c1.88,0 2.31,0.51 3.4,0.6 -0.4,-1.72 -0.29,-4.76 -0.41,-6.19l-1.36 -20.25c-0.14,-1.21 0,-3.78 -0.35,-6.06l-0.69 -10.32c-0.04,-0.74 0.05,-1.4 -0.05,-2.15 -0.54,-3.97 0.3,-6.78 -2.99,-9.81 -1.52,-1.4 -3.51,-2.25 -6.36,-2.25l-28.62 0c-2.94,0 -5.05,0.75 -6.56,2.25 -3.42,3.4 -2.66,6.88 -3.22,11.99l-1.23 18.38c0.01,2.52 -0.71,8.67 -0.79,12.22 -0.02,0.99 -0.19,1 -0.21,1.99 -0.08,3.18 -0.6,7.26 -0.6,10.21 1.12,-0.26 1.75,-0.6 3.2,-0.6z"/>
  <path class="fil1" d="M66.04 66.84l-44.83 0c-3.1,0 -4.8,1.53 -4.8,4.6 0,2.09 1.95,3.8 4,3.8l46.43 0c5.01,0 6.02,-8.41 -0.8,-8.41z"/>
  <path class="fil1" d="M11.21 64.84l0 -22.21 -6 0 0 22.21c0,4.83 6,4.83 6,0z"/>
  <path class="fil1" d="M76.05 42.63l0 22.21c0,4.83 6,4.83 6,0l0 -22.21 -6 0z"/>
 </g>
</svg>
