<?xml version="1.0" encoding="UTF-8"?>
<!DOCTYPE svg PUBLIC "-//W3C//DTD SVG 1.1//EN" "http://www.w3.org/Graphics/SVG/1.1/DTD/svg11.dtd">
<!-- Creator: CorelDRAW 2019 (64-Bit) -->
<svg xmlns="http://www.w3.org/2000/svg" xml:space="preserve" width="0.41276in" height="0.380575in" version="1.1" style="shape-rendering:geometricPrecision; text-rendering:geometricPrecision; image-rendering:optimizeQuality; fill-rule:evenodd; clip-rule:evenodd"
viewBox="0 0 60.32 55.62"
 xmlns:xlink="http://www.w3.org/1999/xlink"
 xmlns:xodm="http://www.corel.com/coreldraw/odm/2003">
 <defs>
  <style type="text/css">
   <![CDATA[
    .fil1 {fill:#91C789}
    .fil0 {fill:#299A3C}
   ]]>
  </style>
 </defs>
 <g id="Layer_x0020_1">
  <metadata id="CorelCorpID_0Corel-Layer"/>
  <path class="fil0" d="M11.34 49.39c0,-2.12 1.18,-3.18 3.32,-3.18l30.99 0c4.72,0 4.02,5.81 0.55,5.81l-32.1 0c-1.42,0 -2.77,-1.18 -2.77,-2.63zm41.23 -4.57l0 -15.36 4.15 0 0 15.36c0,3.34 -4.15,3.34 -4.15,0zm-48.98 0l0 -15.36 4.15 0 0 15.36c0,3.34 -4.15,3.34 -4.15,0zm8.16 -1.8c0,-2.04 0.36,-4.86 0.41,-7.06 0.02,-0.69 0.13,-0.69 0.15,-1.38 0.06,-2.45 0.55,-6.7 0.55,-8.45l0.85 -12.71c0.39,-3.53 -0.14,-5.94 2.22,-8.29 1.04,-1.04 2.5,-1.55 4.53,-1.55l19.78 0c1.97,0 3.34,0.59 4.4,1.55 2.28,2.1 1.69,4.04 2.07,6.78 0.07,0.51 0.01,0.98 0.04,1.48l0.47 7.14c0.24,1.58 0.14,3.35 0.24,4.19l0.94 14c0.08,0.99 0.01,3.09 0.28,4.28 -0.76,-0.06 -1.06,-0.42 -2.35,-0.42l-32.37 0c-1.01,0 -1.44,0.24 -2.21,0.42zm-2.49 -17.16l-9.27 0 0 19.65c0,2.86 2.77,5.4 4.98,5.4 2.05,0 2.21,-0.26 2.91,-0.28 0.05,2.2 3.06,4.98 5.67,4.98l33.2 0c2.61,0 5.62,-2.77 5.67,-4.98 1.17,0.03 3.89,1.19 6.33,-1.41 0.72,-0.76 1.55,-2.28 1.55,-3.71l0 -19.65 -9.13 0 -0.43 -8.42c-0.15,-1.31 -0.18,-2.72 -0.26,-4.17 -0.04,-0.69 -0.11,-1.2 -0.13,-2.08 -0.01,-0.57 -0.08,-0.57 -0.12,-0.98 -0.05,-0.41 -0,-0.82 -0.02,-1.23 -0.22,-4.73 -4.31,-8.99 -8.85,-8.99l-22.14 0c-2.08,0 -4.74,1.34 -6.13,2.73 -0.57,0.57 -1.45,1.87 -1.81,2.62 -0.94,1.98 -1.18,5.53 -1.19,7.8 -0.03,3.27 -0.83,9.28 -0.83,12.73z"/>
  <path class="fil1" d="M13.97 42.61l32.37 0c1.3,0 1.6,0.35 2.35,0.42 -0.28,-1.19 -0.2,-3.29 -0.28,-4.28l-0.94 -14c-0.09,-0.83 0,-2.61 -0.24,-4.19l-0.47 -7.14c-0.03,-0.51 0.03,-0.97 -0.04,-1.48 -0.38,-2.75 0.21,-4.68 -2.07,-6.78 -1.05,-0.97 -2.43,-1.55 -4.4,-1.55l-19.78 0c-2.04,0 -3.49,0.52 -4.53,1.55 -2.37,2.35 -1.84,4.76 -2.22,8.29l-0.85 12.71c0,1.74 -0.49,6 -0.55,8.45 -0.02,0.69 -0.13,0.69 -0.15,1.38 -0.05,2.2 -0.41,5.02 -0.41,7.06 0.77,-0.18 1.21,-0.42 2.21,-0.42z"/>
  <path class="fil1" d="M45.66 46.21l-30.99 0c-2.14,0 -3.32,1.06 -3.32,3.18 0,1.45 1.35,2.63 2.77,2.63l32.1 0c3.46,0 4.16,-5.81 -0.55,-5.81z"/>
  <path class="fil1" d="M7.75 44.83l0 -15.36 -4.15 0 0 15.36c0,3.34 4.15,3.34 4.15,0z"/>
  <path class="fil1" d="M52.57 29.47l0 15.36c0,3.34 4.15,3.34 4.15,0l0 -15.36 -4.15 0z"/>
 </g>
</svg>
