<?xml version="1.0" encoding="UTF-8"?>
<!DOCTYPE svg PUBLIC "-//W3C//DTD SVG 1.1//EN" "http://www.w3.org/Graphics/SVG/1.1/DTD/svg11.dtd">
<!-- Creator: CorelDRAW 2019 (64-Bit) -->
<svg xmlns="http://www.w3.org/2000/svg" xml:space="preserve" width="0.41276in" height="0.380575in" version="1.1" style="shape-rendering:geometricPrecision; text-rendering:geometricPrecision; image-rendering:optimizeQuality; fill-rule:evenodd; clip-rule:evenodd"
viewBox="0 0 53.2 49.05"
 xmlns:xlink="http://www.w3.org/1999/xlink"
 xmlns:xodm="http://www.corel.com/coreldraw/odm/2003">
 <defs>
  <style type="text/css">
   <![CDATA[
    .fil0 {fill:#898989}
    .fil1 {fill:silver}
   ]]>
  </style>
 </defs>
 <g id="Layer_x0020_1">
  <metadata id="CorelCorpID_0Corel-Layer"/>
  <path class="fil0" d="M10 43.56c0,-1.87 1.04,-2.81 2.93,-2.81l27.33 0c4.16,0 3.54,5.12 0.49,5.12l-28.31 0c-1.25,0 -2.44,-1.04 -2.44,-2.32zm36.36 -4.03l0 -13.54 3.66 0 0 13.54c0,2.94 -3.66,2.94 -3.66,0zm-43.19 0l0 -13.54 3.66 0 0 13.54c0,2.94 -3.66,2.94 -3.66,0zm7.2 -1.59c0,-1.8 0.32,-4.29 0.36,-6.23 0.01,-0.61 0.11,-0.61 0.13,-1.21 0.05,-2.16 0.49,-5.91 0.48,-7.45l0.75 -11.21c0.34,-3.12 -0.13,-5.24 1.96,-7.31 0.92,-0.91 2.2,-1.37 4,-1.37l17.45 0c1.74,0 2.95,0.52 3.88,1.37 2.01,1.85 1.49,3.56 1.83,5.98 0.06,0.45 0.01,0.86 0.03,1.31l0.42 6.29c0.21,1.39 0.13,2.96 0.21,3.69l0.83 12.35c0.07,0.88 0.01,2.73 0.25,3.78 -0.67,-0.06 -0.93,-0.37 -2.07,-0.37l-28.55 0c-0.89,0 -1.27,0.21 -1.95,0.37zm-2.2 -15.13l-8.18 0 0 17.33c0,2.52 2.44,4.76 4.39,4.76 1.81,0 1.94,-0.23 2.56,-0.24 0.04,1.94 2.7,4.39 5,4.39l29.28 0c2.3,0 4.96,-2.45 5,-4.39 1.03,0.02 3.43,1.05 5.59,-1.25 0.63,-0.67 1.37,-2.01 1.37,-3.27l0 -17.33 -8.05 0 -0.38 -7.43c-0.13,-1.16 -0.16,-2.4 -0.23,-3.68 -0.03,-0.61 -0.1,-1.06 -0.12,-1.83 -0.01,-0.51 -0.07,-0.5 -0.11,-0.87 -0.04,-0.36 -0,-0.72 -0.02,-1.08 -0.19,-4.17 -3.8,-7.93 -7.81,-7.93l-19.52 0c-1.84,0 -4.18,1.18 -5.4,2.41 -0.5,0.5 -1.28,1.65 -1.59,2.31 -0.83,1.75 -1.04,4.88 -1.05,6.88 -0.02,2.88 -0.73,8.18 -0.73,11.22z"/>
  <path class="fil1" d="M12.32 37.58l28.55 0c1.14,0 1.41,0.31 2.07,0.37 -0.24,-1.05 -0.18,-2.9 -0.25,-3.78l-0.83 -12.35c-0.08,-0.74 0,-2.3 -0.21,-3.69l-0.42 -6.29c-0.02,-0.45 0.03,-0.86 -0.03,-1.31 -0.33,-2.42 0.18,-4.13 -1.83,-5.98 -0.93,-0.85 -2.14,-1.37 -3.88,-1.37l-17.45 0c-1.79,0 -3.08,0.46 -4,1.37 -2.09,2.07 -1.62,4.19 -1.96,7.31l-0.75 11.21c0,1.54 -0.43,5.29 -0.48,7.45 -0.01,0.61 -0.11,0.61 -0.13,1.21 -0.05,1.94 -0.36,4.43 -0.36,6.23 0.68,-0.16 1.07,-0.37 1.95,-0.37z"/>
  <path class="fil1" d="M40.27 40.75l-27.33 0c-1.89,0 -2.93,0.93 -2.93,2.81 0,1.28 1.19,2.32 2.44,2.32l28.31 0c3.06,0 3.67,-5.12 -0.49,-5.12z"/>
  <path class="fil1" d="M6.83 39.53l0 -13.54 -3.66 0 0 13.54c0,2.94 3.66,2.94 3.66,0z"/>
  <path class="fil1" d="M46.37 25.99l0 13.54c0,2.94 3.66,2.94 3.66,0l0 -13.54 -3.66 0z"/>
 </g>
</svg>
