<?xml version="1.0" encoding="utf-8"?>
<!-- Generator: Adobe Illustrator 19.0.0, SVG Export Plug-In . SVG Version: 6.00 Build 0)  -->
<svg version="1.1" id="Layer_1" xmlns="http://www.w3.org/2000/svg" xmlns:xlink="http://www.w3.org/1999/xlink" x="0px" y="0px"
	 viewBox="0 0 1400 92.7" style="enable-background:new 0 0 1400 92.7;" xml:space="preserve">
<style type="text/css">
	.st0{fill:#50C3C4;stroke:#121212;stroke-width:2;stroke-miterlimit:10;}
	.st1{fill:#175182;stroke:#1B1B1C;stroke-width:2;stroke-miterlimit:10;}
	.st2{fill:#FEE1A2;stroke:#1B1B1C;stroke-width:2;stroke-miterlimit:10;}
	.st3{fill:#FEE1A2;}
	.st4{fill:#FDC894;}
	.st5{fill:#50C3C4;}
	.st6{fill:#175182;}
	.st7{opacity:8.000000e-002;}
	.st8{clip-path:url(#XMLID_93_);fill:#175182;stroke:#1B1B1C;stroke-width:2;stroke-miterlimit:10;}
	.st9{clip-path:url(#XMLID_93_);fill:#175182;}
	.st10{fill:none;stroke:#1B1B1C;stroke-width:2;stroke-miterlimit:10;}
	.st11{fill:#FEE1A2;stroke:#1B1B1C;stroke-width:2;stroke-linecap:round;stroke-miterlimit:10;}
	.st12{fill:#1B1B1C;}
	.st13{fill:#FFFFFF;stroke:#1B1B1C;stroke-width:2;stroke-miterlimit:10;}
	.st14{fill:none;stroke:#1B1B1C;stroke-linecap:round;stroke-miterlimit:10;}
	.st15{opacity:0.42;fill:none;stroke:#FFFFFF;stroke-width:7;stroke-linecap:round;stroke-miterlimit:10;}
	.st16{opacity:0.42;fill:#FFFFFF;}
	.st17{fill:#FFFFFF;}
</style>
<path id="XMLID_6_" class="st0" d="M1270.6,598.5h-118.2c-8.2,0-14.9-6.7-14.9-14.9v-68.7c0-8.2,6.7-14.9,14.9-14.9h118.2
	c8.2,0,14.9,6.7,14.9,14.9v68.7C1285.5,591.8,1278.8,598.5,1270.6,598.5z"/>
<path id="XMLID_18_" class="st1" d="M1279.5,412.2l0.6,48.5l10.5,16.2c2.9,4.5,3.4,10.1,1.2,15l0,0c-2.5,5.8-8.2,9.5-14.5,9.5h-96.7
	l-8.7-22l45.7-37.3l33-31L1279.5,412.2z"/>
<path id="XMLID_17_" class="st2" d="M1245.3,501.3c-6.2,0-12.3,0-18.5,0v-29.6h-32v35.7l-2.1,0.6l-3,1.7l-3.7,4.3l-1.7,8.3l-6,15.3
	c2.9,3.1,11.7,11.5,25.7,13.4c3.8,0.5,12.8,1.6,22.5-3.3c10.1-5,14.6-13.2,16-15.8C1250,518.1,1246.2,504.3,1245.3,501.3z"/>
<path id="XMLID_16_" class="st1" d="M1142.6,432.2v41.1c0,2.7-0.8,5.3-2.4,7.6l-9.9,14.6c-3.8,5.6-3.1,12.5,1.8,17.4h0
	c3.6,3.7,9.1,5.8,14.8,5.8h17.7v16c2.3,1.2,10.1,4.9,17.7,1.7c0.9-0.4,3.6-1.6,6.3-4.7c8.3-9.4,6.6-25.6,6.1-48.2
	c-0.2-6.9-0.3-17,0-29.4l-30.9-31.3L1142.6,432.2z"/>
<circle id="XMLID_2_" class="st2" cx="1150.3" cy="440.5" r="10.2"/>
<circle id="XMLID_19_" class="st2" cx="1270.6" cy="430.9" r="10.2"/>
<path id="XMLID_1_" class="st2" d="M1210.5,486.3L1210.5,486.3c-33.4,0-60.8-27.4-60.8-60.8v-45.9c0-33.4,27.4-60.8,60.8-60.8h0
	c33.4,0,60.8,27.4,60.8,60.8v45.9C1271.3,458.9,1244,486.3,1210.5,486.3z"/>
<rect id="XMLID_3_" x="552" y="492.3" class="st3" width="25.5" height="25.5"/>
<rect id="XMLID_8_" x="585" y="492.3" class="st4" width="25.5" height="25.5"/>
<rect id="XMLID_9_" x="620.5" y="492.3" class="st5" width="25.5" height="25.5"/>
<rect id="XMLID_10_" x="653.5" y="492.3" class="st6" width="25.5" height="25.5"/>
<path id="XMLID_39_" class="st7" d="M1151.3,430.3c5.7-5.7,13.3-6.3,16.4-6.3l10-6.8l8.5-6.2l6.6-5l9.6-7l7-7.3l4.3-0.8l3.9,5
	l-3.1,1c-0.8-0.4-2-0.8-3.1-0.4c-2.3,0.7-3.1,4-3.4,4.8c-2,6.8-14.2,20.8-22.3,26.7c-14.4,10.4-35.4,9-36.5,5.7
	C1148.9,432.7,1149.9,431.8,1151.3,430.3z"/>
<rect id="XMLID_4_" x="644.3" y="517.8" class="st3" width="0" height="0"/>
<g id="XMLID_15_">
	<defs>
		<path id="XMLID_14_" d="M1211,505.4L1211,505.4c-37.7,0-68.5-30.8-68.5-68.5v-51.7c0-37.7,30.8-68.5,68.5-68.5h0
			c37.7,0,68.5,30.8,68.5,68.5v51.7C1279.5,474.5,1248.7,505.4,1211,505.4z"/>
	</defs>
	<clipPath id="XMLID_93_">
		<use xlink:href="#XMLID_14_"  style="overflow:visible;"/>
	</clipPath>
	<path id="XMLID_5_" class="st8" d="M1261.6,296.6c-28.9-1.4-53.5,17.8-60.6,44.2c-11.2-16.8-30.6-27.6-52.6-26.6
		c-30.5,1.4-55.3,26.2-56.7,56.7c-1.6,34.3,25.7,62.5,59.6,62.5c24.6,0,45.7-14.9,54.8-36.1c1.4-3.3,5.7-4,8.1-1.4
		c10.9,12.2,26.8,19.8,44.4,19.8c33.9,0,61.2-28.3,59.6-62.5C1316.9,322.9,1292.1,298.1,1261.6,296.6z"/>
	<ellipse id="XMLID_13_" class="st9" cx="1183.6" cy="327.7" rx="52.5" ry="46.2"/>
</g>
<path id="XMLID_11_" class="st3" d="M1317.7,506.4"/>
<path id="XMLID_7_" class="st10" d="M1142.6,432.2l0-54.7c0,0,2-27.5,24.1-45.8c2.8-2.3,16.2-13,36.9-15.1
	c3.9-0.4,34.4-2.8,56.8,20.3c13.3,13.8,17,29.7,18.1,36.6c0.4,12.8,0.7,25.7,1.1,38.5"/>
<line id="XMLID_20_" class="st11" x1="1226.8" y1="501.3" x2="1226.8" y2="517.5"/>
<g id="XMLID_21_">
	<circle id="XMLID_12_" class="st12" cx="1190.1" cy="437.5" r="3"/>
	<circle id="XMLID_22_" class="st12" cx="1231.3" cy="436.2" r="3"/>
</g>
<path id="XMLID_24_" class="st13" d="M1224.7,460c1.3,0,2.3,1.1,2.1,2.2c-1.2,6.5-7.4,11.5-14.8,11.5c-7.6,0-13.9-5.2-14.9-12
	c-0.1-0.9,0.7-1.8,1.7-1.8H1224.7z"/>
<path id="XMLID_25_" class="st14" d="M1208.4,450.2c0.6,0.3,1.4,0.7,2.4,0.9c2.7,0.5,4.9-0.4,5.8-0.9"/>
<path id="XMLID_26_" class="st14" d="M1238.6,427.8c-0.5-0.5-1.1-1.1-2-1.7c-2.4-1.4-4.8-1.3-5.8-1.2"/>
<path id="XMLID_27_" class="st14" d="M1182.3,428.8c0.5-0.5,1.1-1.1,2-1.7c2.4-1.4,4.8-1.3,5.8-1.2"/>
<circle id="XMLID_23_" class="st4" cx="1184.5" cy="458.5" r="4.4"/>
<circle id="XMLID_29_" class="st4" cx="1238.6" cy="456.9" r="4.4"/>
<g id="XMLID_30_">
	<path id="XMLID_28_" class="st2" d="M1275.1,597.5L1275.1,597.5c-5.7,0-10.4-4.7-10.4-10.4V543h20.8v44.1
		C1285.5,592.9,1280.9,597.5,1275.1,597.5z"/>
	<line id="XMLID_31_" class="st11" x1="1264.8" y1="543" x2="1264.8" y2="530.2"/>
</g>
<g id="XMLID_33_">
	<path id="XMLID_35_" class="st2" d="M1147.9,597.5L1147.9,597.5c5.7,0,10.4-4.7,10.4-10.4V543h-20.8v44.1
		C1137.5,592.9,1142.2,597.5,1147.9,597.5z"/>
	<line id="XMLID_34_" class="st11" x1="1158.3" y1="543" x2="1158.3" y2="530.2"/>
</g>
<path id="XMLID_36_" class="st15" d="M1191.8,329.6c0,0-46.6,8-38.9,89.5"/>
<path id="XMLID_32_" class="st16" d="M1427.7,157.5h-0.1c-2.1,0-3.9-1.7-3.9-3.9v0c0-2.1,1.7-3.9,3.9-3.9h0.1c2.1,0,3.9,1.7,3.9,3.9
	v0C1431.5,155.7,1429.8,157.5,1427.7,157.5z"/>
<path id="XMLID_38_" class="st15" d="M1154.5,465.8c0,0,10.3,26-6.6,39.3"/>
<path class="st17" d="M0,69.3C167.2,9.5,303.4-1.3,397.5,0.1c232.6,3.5,302.3,82.7,525,50.6c79.2-11.4,135.6-30.9,242-26.6
	c100.3,4,181.7,26.5,235.5,45.2l0,23.5H0L0,69.3z"/>
<path id="XMLID_92_" class="st17" d="M-0.8,69.3C166.4,9.5,302.6-1.3,396.6,0.1c232.6,3.5,302.3,82.7,525,50.6
	c79.2-11.4,135.6-30.9,242-26.6c100.3,4,181.7,26.5,235.5,45.2l0,23.5H-0.8L-0.8,69.3z"/>
</svg>
