<svg xmlns="http://www.w3.org/2000/svg" xmlns:xlink="http://www.w3.org/1999/xlink" width="50" zoomAndPan="magnify" viewBox="0 0 37.5 37.499999" height="50" preserveAspectRatio="xMidYMid meet" version="1.0"><defs><clipPath id="d4dd055568"><path d="M 5.550781 5.550781 L 31.457031 5.550781 L 31.457031 31.457031 L 5.550781 31.457031 Z M 5.550781 5.550781 " clip-rule="nonzero"/></clipPath></defs><g clip-path="url(#d4dd055568)"><path fill="#000000" d="M 18.503906 5.550781 C 25.65625 5.550781 31.457031 11.351562 31.457031 18.503906 C 31.457031 25.65625 25.65625 31.457031 18.503906 31.457031 C 11.351562 31.457031 5.550781 25.65625 5.550781 18.503906 C 5.550781 11.351562 11.351562 5.550781 18.503906 5.550781 Z M 15.957031 10.101562 C 15.894531 9.988281 15.929688 9.847656 16.042969 9.785156 C 16.15625 9.71875 16.296875 9.757812 16.359375 9.871094 L 16.71875 10.488281 C 16.78125 10.597656 16.742188 10.742188 16.632812 10.804688 C 16.519531 10.867188 16.378906 10.832031 16.3125 10.71875 Z M 22.445312 11.5 L 21.832031 11.855469 C 21.71875 11.917969 21.679688 12.0625 21.746094 12.171875 C 21.808594 12.285156 21.949219 12.324219 22.0625 12.257812 L 22.679688 11.902344 C 22.792969 11.839844 22.832031 11.695312 22.765625 11.585938 C 22.703125 11.472656 22.558594 11.433594 22.445312 11.5 Z M 14.558594 11.5 C 14.449219 11.433594 14.304688 11.472656 14.242188 11.585938 C 14.175781 11.695312 14.214844 11.839844 14.328125 11.902344 L 14.945312 12.257812 C 15.054688 12.324219 15.199219 12.285156 15.261719 12.171875 C 15.324219 12.0625 15.289062 11.917969 15.175781 11.855469 Z M 18.269531 9.359375 L 18.269531 10.070312 C 18.269531 10.199219 18.375 10.304688 18.503906 10.304688 C 18.632812 10.304688 18.738281 10.199219 18.738281 10.070312 L 18.738281 9.359375 C 18.738281 9.226562 18.632812 9.121094 18.503906 9.121094 C 18.375 9.121094 18.269531 9.226562 18.269531 9.359375 Z M 20.695312 10.71875 L 21.050781 10.101562 C 21.113281 9.988281 21.074219 9.847656 20.964844 9.785156 C 20.851562 9.71875 20.707031 9.757812 20.644531 9.871094 L 20.289062 10.488281 C 20.226562 10.597656 20.261719 10.742188 20.375 10.804688 C 20.488281 10.867188 20.628906 10.832031 20.695312 10.71875 Z M 20.390625 13.433594 L 19.179688 13.320312 C 19.097656 13.3125 19.023438 13.257812 18.984375 13.179688 L 18.503906 12.0625 L 18.023438 13.167969 C 17.996094 13.25 17.921875 13.308594 17.828125 13.320312 L 16.617188 13.429688 L 17.53125 14.234375 C 17.589844 14.289062 17.621094 14.375 17.605469 14.460938 L 17.335938 15.648438 L 18.382812 15.03125 C 18.453125 14.988281 18.546875 14.984375 18.621094 15.03125 L 19.671875 15.648438 L 19.410156 14.480469 C 19.382812 14.394531 19.40625 14.296875 19.476562 14.238281 Z M 20.019531 18.308594 C 20.019531 17.890625 19.847656 17.511719 19.574219 17.238281 C 19.300781 16.964844 18.921875 16.792969 18.503906 16.792969 C 18.085938 16.792969 17.707031 16.964844 17.433594 17.238281 C 17.160156 17.511719 16.988281 17.890625 16.988281 18.308594 C 16.988281 18.722656 17.160156 19.105469 17.433594 19.378906 C 17.707031 19.652344 18.085938 19.820312 18.503906 19.820312 C 18.921875 19.820312 19.300781 19.652344 19.574219 19.378906 C 19.847656 19.105469 20.019531 18.726562 20.019531 18.308594 Z M 18.410156 21.820312 L 18.09375 24.894531 L 18.503906 25.460938 L 18.914062 24.894531 L 18.597656 21.820312 C 18.535156 21.84375 18.46875 21.84375 18.410156 21.820312 Z M 13.957031 15.425781 C 13.957031 15.152344 13.847656 14.90625 13.671875 14.726562 C 13.488281 14.546875 13.246094 14.4375 12.96875 14.4375 C 12.699219 14.4375 12.453125 14.546875 12.273438 14.726562 C 12.09375 14.90625 11.984375 15.152344 11.984375 15.425781 C 11.984375 15.699219 12.09375 15.945312 12.273438 16.125 C 12.449219 16.300781 12.699219 16.410156 12.96875 16.410156 C 13.246094 16.410156 13.488281 16.300781 13.671875 16.125 C 13.847656 15.945312 13.957031 15.699219 13.957031 15.425781 Z M 12.757812 20.011719 L 12.96875 20.304688 L 13.183594 20.011719 L 12.976562 17.964844 L 12.96875 17.964844 Z M 10.296875 18.710938 L 10.296875 22.050781 L 10.976562 22.050781 L 10.976562 19.078125 C 10.976562 18.949219 11.082031 18.84375 11.210938 18.84375 C 11.339844 18.84375 11.445312 18.949219 11.445312 19.078125 L 11.445312 22.050781 L 14.308594 22.050781 C 14.363281 21.925781 14.425781 21.8125 14.496094 21.703125 L 14.496094 19.078125 C 14.496094 18.949219 14.601562 18.84375 14.734375 18.84375 C 14.859375 18.84375 14.964844 18.949219 14.964844 19.078125 L 14.964844 21.152344 C 14.976562 21.144531 14.988281 21.132812 15 21.125 C 15.191406 20.957031 15.410156 20.8125 15.648438 20.691406 L 15.648438 18.710938 C 15.648438 18.316406 15.460938 17.953125 15.160156 17.691406 C 14.867188 17.4375 14.464844 17.273438 14.023438 17.253906 L 13.417969 17.695312 L 13.660156 20.050781 C 13.667969 20.117188 13.644531 20.179688 13.609375 20.226562 L 13.160156 20.835938 C 13.085938 20.941406 12.9375 20.964844 12.832031 20.890625 C 12.8125 20.871094 12.792969 20.855469 12.777344 20.835938 L 12.328125 20.210938 C 12.292969 20.164062 12.277344 20.109375 12.285156 20.050781 L 12.523438 17.695312 L 12.527344 17.695312 L 11.921875 17.253906 C 11.476562 17.273438 11.074219 17.433594 10.785156 17.691406 C 10.480469 17.953125 10.296875 18.316406 10.296875 18.710938 Z M 25.023438 15.425781 C 25.023438 15.152344 24.914062 14.90625 24.734375 14.726562 C 24.554688 14.546875 24.308594 14.4375 24.035156 14.4375 C 23.761719 14.4375 23.515625 14.546875 23.335938 14.726562 C 23.160156 14.90625 23.046875 15.152344 23.046875 15.425781 C 23.046875 15.699219 23.160156 15.945312 23.335938 16.125 C 23.515625 16.300781 23.761719 16.410156 24.035156 16.410156 C 24.308594 16.410156 24.554688 16.300781 24.734375 16.125 C 24.914062 15.945312 25.023438 15.699219 25.023438 15.425781 Z M 23.824219 20.011719 L 24.035156 20.304688 L 24.25 20.011719 L 24.039062 17.964844 L 24.035156 17.964844 Z M 26.710938 22.046875 L 26.710938 18.710938 C 26.710938 18.316406 26.527344 17.953125 26.222656 17.691406 C 25.929688 17.4375 25.53125 17.273438 25.085938 17.253906 L 24.480469 17.695312 L 24.722656 20.050781 C 24.730469 20.117188 24.710938 20.179688 24.671875 20.226562 L 24.222656 20.835938 C 24.148438 20.941406 24.003906 20.964844 23.898438 20.890625 C 23.875 20.871094 23.859375 20.855469 23.84375 20.835938 L 23.390625 20.210938 C 23.355469 20.164062 23.34375 20.109375 23.347656 20.050781 L 23.589844 17.695312 L 22.984375 17.253906 C 22.542969 17.273438 22.140625 17.433594 21.847656 17.691406 C 21.546875 17.953125 21.359375 18.316406 21.359375 18.707031 L 21.359375 20.691406 C 21.597656 20.8125 21.816406 20.957031 22.007812 21.121094 C 22.019531 21.132812 22.03125 21.144531 22.039062 21.152344 L 22.039062 19.078125 C 22.039062 18.949219 22.144531 18.84375 22.273438 18.84375 C 22.40625 18.84375 22.507812 18.945312 22.507812 19.078125 L 22.507812 21.703125 C 22.582031 21.8125 22.644531 21.929688 22.699219 22.046875 L 25.5625 22.046875 L 25.5625 19.078125 C 25.5625 18.949219 25.667969 18.84375 25.796875 18.84375 C 25.925781 18.84375 26.03125 18.945312 26.03125 19.078125 L 26.03125 22.046875 Z M 14.933594 21.890625 C 14.929688 21.898438 14.921875 21.90625 14.917969 21.914062 C 14.824219 22.054688 14.746094 22.203125 14.691406 22.355469 C 14.6875 22.359375 14.6875 22.363281 14.683594 22.367188 C 14.613281 22.570312 14.574219 22.785156 14.574219 23.007812 L 14.574219 27.886719 L 15.75 27.886719 L 15.75 23.53125 C 15.75 23.402344 15.855469 23.300781 15.984375 23.300781 C 16.113281 23.300781 16.21875 23.402344 16.21875 23.53125 L 16.21875 27.886719 L 20.789062 27.886719 L 20.789062 23.53125 C 20.789062 23.402344 20.890625 23.300781 21.023438 23.300781 C 21.152344 23.300781 21.257812 23.402344 21.257812 23.53125 L 21.257812 27.886719 L 22.429688 27.886719 L 22.429688 23.007812 C 22.429688 22.785156 22.394531 22.570312 22.320312 22.371094 C 22.316406 22.363281 22.316406 22.363281 22.316406 22.359375 C 22.257812 22.203125 22.183594 22.054688 22.089844 21.914062 C 22.082031 21.90625 22.078125 21.898438 22.074219 21.890625 C 21.96875 21.738281 21.84375 21.601562 21.699219 21.476562 C 21.507812 21.308594 21.289062 21.167969 21.046875 21.0625 C 21.035156 21.058594 21.027344 21.054688 21.019531 21.050781 C 20.699219 20.914062 20.347656 20.835938 19.972656 20.824219 L 19.027344 21.511719 C 19.03125 21.53125 19.035156 21.550781 19.039062 21.570312 L 19.386719 24.9375 C 19.394531 25.003906 19.375 25.0625 19.335938 25.113281 L 18.691406 25.992188 C 18.617188 26.097656 18.46875 26.121094 18.363281 26.042969 C 18.34375 26.027344 18.328125 26.011719 18.3125 25.988281 L 17.664062 25.097656 C 17.628906 25.050781 17.613281 24.992188 17.621094 24.9375 L 17.964844 21.566406 C 17.96875 21.546875 17.972656 21.53125 17.976562 21.511719 L 17.03125 20.824219 C 16.65625 20.835938 16.304688 20.914062 15.988281 21.050781 C 15.980469 21.054688 15.96875 21.058594 15.957031 21.0625 C 15.714844 21.167969 15.496094 21.308594 15.308594 21.476562 C 15.164062 21.601562 15.039062 21.738281 14.933594 21.890625 Z M 14.933594 21.890625 " fill-opacity="1" fill-rule="evenodd"/></g></svg>