<svg xmlns="http://www.w3.org/2000/svg" xmlns:xlink="http://www.w3.org/1999/xlink" width="50" zoomAndPan="magnify" viewBox="0 0 37.5 37.499999" height="50" preserveAspectRatio="xMidYMid meet" version="1.0"><defs><clipPath id="7d6945c9bf"><path d="M 5.550781 7.527344 L 14 7.527344 L 14 19 L 5.550781 19 Z M 5.550781 7.527344 " clip-rule="nonzero"/></clipPath><clipPath id="e65666d0dd"><path d="M 23 16 L 31.457031 16 L 31.457031 29 L 23 29 Z M 23 16 " clip-rule="nonzero"/></clipPath><clipPath id="66e27c2fbc"><path d="M 19 28 L 22 28 L 22 29.730469 L 19 29.730469 Z M 19 28 " clip-rule="nonzero"/></clipPath><clipPath id="b64ea7ffc3"><path d="M 23 28 L 31 28 L 31 29.730469 L 23 29.730469 Z M 23 28 " clip-rule="nonzero"/></clipPath><clipPath id="dfa42f009a"><path d="M 16 28 L 19 28 L 19 29.730469 L 16 29.730469 Z M 16 28 " clip-rule="nonzero"/></clipPath></defs><g clip-path="url(#7d6945c9bf)"><path fill="#000000" d="M 9.4375 18.835938 C 9.640625 18.507812 9.875 18.136719 10.121094 17.738281 C 11.402344 15.722656 13.324219 12.675781 13.324219 11.460938 C 13.324219 9.292969 11.578125 7.53125 9.4375 7.53125 C 7.292969 7.53125 5.550781 9.292969 5.550781 11.460938 C 5.550781 12.671875 7.476562 15.71875 8.75 17.734375 C 9 18.136719 9.238281 18.503906 9.4375 18.835938 Z M 6.890625 11.464844 C 6.890625 10.046875 8.035156 8.890625 9.4375 8.890625 C 10.839844 8.890625 11.984375 10.046875 11.984375 11.464844 C 11.984375 12.886719 10.839844 14.042969 9.4375 14.042969 C 8.035156 14.042969 6.890625 12.878906 6.890625 11.464844 Z M 6.890625 11.464844 " fill-opacity="1" fill-rule="nonzero"/></g><path fill="#000000" d="M 11.84375 19.285156 L 7.035156 19.285156 C 6.769531 19.285156 6.558594 19.5 6.558594 19.765625 C 6.558594 20.03125 6.777344 20.246094 7.035156 20.246094 L 11.84375 20.246094 C 12.109375 20.246094 12.320312 20.027344 12.320312 19.765625 C 12.320312 19.5 12.101562 19.285156 11.84375 19.285156 Z M 11.84375 19.285156 " fill-opacity="1" fill-rule="nonzero"/><g clip-path="url(#e65666d0dd)"><path fill="#000000" d="M 27.570312 28.214844 C 27.773438 27.886719 28.007812 27.515625 28.253906 27.117188 C 29.527344 25.101562 31.457031 22.058594 31.457031 20.84375 C 31.457031 18.675781 29.710938 16.914062 27.570312 16.914062 C 25.425781 16.914062 23.683594 18.675781 23.683594 20.84375 C 23.683594 22.058594 25.609375 25.101562 26.882812 27.117188 C 27.132812 27.515625 27.363281 27.886719 27.570312 28.214844 Z M 25.023438 20.84375 C 25.023438 19.425781 26.167969 18.269531 27.570312 18.269531 C 28.972656 18.269531 30.117188 19.425781 30.117188 20.84375 C 30.117188 22.265625 28.972656 23.421875 27.570312 23.421875 C 26.167969 23.417969 25.023438 22.257812 25.023438 20.84375 Z M 25.023438 20.84375 " fill-opacity="1" fill-rule="nonzero"/></g><g clip-path="url(#66e27c2fbc)"><path fill="#000000" d="M 21.347656 28.761719 C 21.023438 28.761719 20.707031 28.753906 20.402344 28.75 L 20.390625 28.75 C 20.132812 28.75 19.921875 28.957031 19.917969 29.226562 C 19.910156 29.492188 20.121094 29.710938 20.386719 29.714844 C 20.699219 29.722656 21.023438 29.726562 21.351562 29.726562 C 21.617188 29.726562 21.828125 29.515625 21.828125 29.246094 C 21.824219 28.980469 21.613281 28.761719 21.347656 28.761719 Z M 21.347656 28.761719 " fill-opacity="1" fill-rule="nonzero"/></g><g clip-path="url(#b64ea7ffc3)"><path fill="#000000" d="M 29.972656 28.664062 L 25.164062 28.664062 C 25.15625 28.664062 25.148438 28.664062 25.140625 28.664062 L 25.136719 28.664062 C 24.816406 28.679688 24.5 28.691406 24.191406 28.699219 C 23.925781 28.710938 23.722656 28.933594 23.734375 29.203125 C 23.742188 29.464844 23.953125 29.667969 24.207031 29.667969 L 24.222656 29.667969 C 24.535156 29.65625 24.859375 29.640625 25.183594 29.628906 L 29.972656 29.628906 C 30.234375 29.628906 30.445312 29.410156 30.445312 29.148438 C 30.445312 28.886719 30.234375 28.664062 29.972656 28.664062 Z M 29.972656 28.664062 " fill-opacity="1" fill-rule="nonzero"/></g><path fill="#000000" d="M 14.335938 20.109375 L 14.34375 20.109375 C 14.683594 20.101562 14.988281 20.109375 15.269531 20.117188 L 15.292969 20.117188 C 15.546875 20.117188 15.757812 19.917969 15.765625 19.65625 C 15.777344 19.386719 15.574219 19.164062 15.308594 19.152344 C 15.011719 19.140625 14.683594 19.136719 14.328125 19.140625 C 14.0625 19.148438 13.851562 19.363281 13.855469 19.632812 C 13.863281 19.894531 14.078125 20.109375 14.335938 20.109375 Z M 14.335938 20.109375 " fill-opacity="1" fill-rule="nonzero"/><path fill="#000000" d="M 15.136719 23.476562 C 14.871094 23.769531 14.671875 23.996094 14.488281 24.214844 C 14.316406 24.414062 14.34375 24.722656 14.542969 24.894531 C 14.632812 24.972656 14.742188 25.011719 14.851562 25.011719 C 14.984375 25.011719 15.121094 24.949219 15.210938 24.839844 C 15.382812 24.632812 15.578125 24.414062 15.835938 24.132812 C 16.015625 23.933594 16.003906 23.628906 15.808594 23.449219 C 15.617188 23.261719 15.3125 23.273438 15.136719 23.476562 Z M 15.136719 23.476562 " fill-opacity="1" fill-rule="nonzero"/><g clip-path="url(#dfa42f009a)"><path fill="#000000" d="M 17.585938 28.574219 C 17.261719 28.535156 16.949219 28.492188 16.667969 28.445312 C 16.410156 28.402344 16.160156 28.574219 16.117188 28.835938 C 16.074219 29.097656 16.246094 29.351562 16.507812 29.394531 C 16.808594 29.449219 17.132812 29.492188 17.476562 29.53125 C 17.492188 29.53125 17.515625 29.535156 17.53125 29.535156 C 17.769531 29.535156 17.980469 29.355469 18.007812 29.105469 C 18.039062 28.847656 17.851562 28.609375 17.585938 28.574219 Z M 17.585938 28.574219 " fill-opacity="1" fill-rule="nonzero"/></g><path fill="#000000" d="M 17.695312 20.222656 L 17.6875 20.222656 C 17.429688 20.222656 17.214844 20.433594 17.214844 20.699219 C 17.214844 20.800781 17.164062 20.992188 16.949219 21.335938 C 16.808594 21.558594 16.875 21.859375 17.09375 22.003906 C 17.175781 22.050781 17.261719 22.078125 17.355469 22.078125 C 17.511719 22.078125 17.667969 22.003906 17.757812 21.855469 C 18.035156 21.421875 18.167969 21.050781 18.175781 20.714844 C 18.167969 20.445312 17.957031 20.226562 17.695312 20.222656 Z M 17.695312 20.222656 " fill-opacity="1" fill-rule="nonzero"/><path fill="#000000" d="M 14.035156 27.015625 C 14.019531 26.746094 13.792969 26.542969 13.527344 26.5625 C 13.261719 26.578125 13.0625 26.804688 13.078125 27.074219 C 13.105469 27.515625 13.285156 27.910156 13.621094 28.238281 C 13.710938 28.328125 13.835938 28.378906 13.953125 28.378906 C 14.078125 28.378906 14.203125 28.328125 14.292969 28.238281 C 14.476562 28.046875 14.476562 27.738281 14.289062 27.554688 C 14.132812 27.386719 14.050781 27.214844 14.035156 27.015625 Z M 14.035156 27.015625 " fill-opacity="1" fill-rule="nonzero"/></svg>