<svg xmlns="http://www.w3.org/2000/svg" xmlns:xlink="http://www.w3.org/1999/xlink" width="50" zoomAndPan="magnify" viewBox="0 0 37.5 37.499999" height="50" preserveAspectRatio="xMidYMid meet" version="1.0"><defs><clipPath id="009326f2aa"><path d="M 15 7.464844 L 28 7.464844 L 28 13 L 15 13 Z M 15 7.464844 " clip-rule="nonzero"/></clipPath><clipPath id="f0c375f249"><path d="M 3.722656 8 L 14 8 L 14 17 L 3.722656 17 Z M 3.722656 8 " clip-rule="nonzero"/></clipPath><clipPath id="c9a5f64846"><path d="M 10 7.464844 L 21 7.464844 L 21 29.667969 L 10 29.667969 Z M 10 7.464844 " clip-rule="nonzero"/></clipPath><clipPath id="63d6f035cb"><path d="M 18 20 L 33.324219 20 L 33.324219 29.667969 L 18 29.667969 Z M 18 20 " clip-rule="nonzero"/></clipPath></defs><path fill="#000000" d="M 21.65625 17.460938 C 21.78125 17.625 21.871094 17.808594 21.925781 18.007812 C 21.980469 18.207031 21.992188 18.40625 21.96875 18.613281 C 21.941406 18.816406 21.875 19.007812 21.773438 19.1875 C 21.671875 19.367188 21.539062 19.519531 21.378906 19.644531 C 21.214844 19.769531 21.035156 19.859375 20.835938 19.914062 C 20.636719 19.96875 20.4375 19.984375 20.234375 19.957031 C 20.027344 19.929688 19.839844 19.867188 19.660156 19.761719 C 19.480469 19.660156 19.332031 19.527344 19.203125 19.363281 C 19.078125 19.199219 18.988281 19.019531 18.9375 18.820312 C 18.882812 18.621094 18.867188 18.417969 18.894531 18.214844 C 18.921875 18.007812 18.984375 17.816406 19.089844 17.636719 C 19.191406 17.457031 19.324219 17.304688 19.484375 17.179688 C 19.648438 17.054688 19.828125 16.964844 20.027344 16.910156 C 20.226562 16.855469 20.425781 16.84375 20.628906 16.867188 C 20.832031 16.894531 21.023438 16.960938 21.203125 17.0625 C 21.378906 17.164062 21.53125 17.296875 21.65625 17.460938 Z M 21.65625 17.460938 " fill-opacity="1" fill-rule="nonzero"/><path fill="#000000" d="M 31.011719 25.402344 C 31.15625 25.496094 31.316406 25.539062 31.472656 25.539062 C 31.757812 25.539062 32.035156 25.394531 32.199219 25.132812 C 32.453125 24.730469 32.335938 24.195312 31.933594 23.941406 C 30.449219 22.996094 28.972656 22.691406 27.742188 22.695312 C 27.316406 22.695312 26.917969 22.730469 26.554688 22.785156 C 26.476562 22.953125 26.335938 23.085938 26.152344 23.148438 C 25.941406 23.21875 25.730469 23.277344 25.523438 23.320312 C 25.21875 23.382812 24.917969 23.414062 24.625 23.414062 L 24.621094 23.414062 C 24.574219 23.414062 24.527344 23.414062 24.484375 23.410156 C 23.386719 23.375 22.582031 22.902344 22.09375 22.503906 C 21.613281 22.113281 21.34375 21.726562 21.25 21.582031 L 21.246094 21.574219 C 21.152344 21.417969 21.121094 21.230469 21.164062 21.050781 C 21.207031 20.871094 21.316406 20.71875 21.472656 20.625 C 21.582031 20.554688 21.707031 20.519531 21.832031 20.519531 C 22.074219 20.519531 22.292969 20.644531 22.417969 20.847656 C 22.421875 20.855469 22.429688 20.867188 22.441406 20.878906 C 22.460938 20.90625 22.492188 20.953125 22.539062 21.007812 C 22.625 21.113281 22.765625 21.273438 22.960938 21.429688 C 23.257812 21.667969 23.574219 21.835938 23.914062 21.933594 C 23.503906 21.484375 23.140625 21.019531 22.835938 20.648438 C 22.429688 20.058594 21.632812 19.738281 21.144531 20.105469 C 20.660156 20.46875 20.367188 21.335938 20.929688 22.246094 C 21.710938 23.492188 22.347656 24.144531 23.644531 24.980469 C 24.148438 25.253906 24.542969 25.253906 24.863281 25.121094 C 24.949219 25.105469 25.035156 25.074219 25.117188 25.027344 C 25.1875 24.984375 26.273438 24.417969 27.742188 24.421875 C 28.699219 24.425781 29.816406 24.648438 31.011719 25.402344 Z M 31.011719 25.402344 " fill-opacity="1" fill-rule="nonzero"/><path fill="#000000" d="M 22.433594 21.097656 C 22.382812 21.039062 22.347656 20.992188 22.328125 20.960938 C 22.316406 20.945312 22.308594 20.933594 22.304688 20.925781 C 22.304688 20.925781 22.304688 20.925781 22.304688 20.921875 C 22.300781 20.921875 22.300781 20.921875 22.300781 20.921875 C 22.140625 20.660156 21.804688 20.582031 21.546875 20.742188 C 21.285156 20.902344 21.207031 21.242188 21.363281 21.503906 C 21.386719 21.539062 21.648438 21.960938 22.183594 22.398438 C 22.710938 22.832031 23.535156 23.277344 24.621094 23.277344 C 24.621094 23.277344 24.621094 23.277344 24.625 23.277344 C 24.679688 23.277344 24.738281 23.273438 24.792969 23.273438 C 24.980469 23.265625 25.175781 23.242188 25.378906 23.207031 C 25.613281 23.164062 25.855469 23.101562 26.105469 23.015625 C 26.21875 22.980469 26.3125 22.90625 26.378906 22.816406 C 26.476562 22.675781 26.511719 22.492188 26.453125 22.316406 C 26.355469 22.027344 26.042969 21.871094 25.753906 21.96875 C 25.328125 22.113281 24.953125 22.167969 24.625 22.167969 C 24.429688 22.167969 24.253906 22.148438 24.085938 22.117188 C 23.574219 22.015625 23.175781 21.78125 22.875 21.539062 C 22.679688 21.378906 22.53125 21.214844 22.433594 21.097656 Z M 22.433594 21.097656 " fill-opacity="1" fill-rule="nonzero"/><g clip-path="url(#009326f2aa)"><path fill="#000000" d="M 19.433594 10.878906 C 20.132812 11.605469 20.703125 12.328125 21.125 12.90625 C 22.652344 11.449219 24.972656 11.289062 27.671875 11.585938 C 24.238281 7.847656 18.382812 7.675781 15.488281 8.007812 C 17.03125 8.65625 18.375 9.777344 19.433594 10.878906 Z M 19.433594 10.878906 " fill-opacity="1" fill-rule="nonzero"/></g><g clip-path="url(#f0c375f249)"><path fill="#000000" d="M 13.332031 8.476562 C 10.5625 9.382812 5.304688 11.980469 3.722656 16.808594 C 6.058594 15.417969 8.234375 14.59375 10.222656 15.285156 C 10.367188 14.582031 10.59375 13.6875 10.925781 12.734375 C 11.433594 11.292969 12.195312 9.710938 13.332031 8.476562 Z M 13.332031 8.476562 " fill-opacity="1" fill-rule="nonzero"/></g><g clip-path="url(#c9a5f64846)"><path fill="#000000" d="M 15.820312 12.914062 C 17.296875 12.609375 18.960938 12.566406 20.652344 12.960938 C 20.253906 12.429688 19.742188 11.800781 19.136719 11.167969 C 17.980469 9.957031 16.480469 8.75 14.796875 8.191406 L 14.777344 8.105469 L 14.714844 7.804688 L 14.695312 7.722656 L 14.691406 7.707031 C 14.664062 7.585938 14.570312 7.5 14.460938 7.476562 C 14.421875 7.46875 14.382812 7.46875 14.339844 7.476562 L 14.160156 7.515625 C 14.117188 7.527344 14.082031 7.542969 14.050781 7.566406 C 13.957031 7.632812 13.90625 7.75 13.933594 7.871094 L 13.9375 7.890625 L 13.957031 7.96875 L 14.019531 8.273438 L 14.039062 8.355469 C 12.953125 9.363281 12.167969 10.730469 11.617188 12.078125 C 11.160156 13.191406 10.863281 14.285156 10.675781 15.136719 C 12.054688 14.078125 13.605469 13.476562 15.066406 13.09375 L 18.585938 29.34375 C 18.621094 29.503906 18.777344 29.605469 18.9375 29.570312 L 19.117188 29.53125 C 19.277344 29.496094 19.378906 29.335938 19.34375 29.175781 Z M 15.820312 12.914062 " fill-opacity="1" fill-rule="nonzero"/></g><g clip-path="url(#63d6f035cb)"><path fill="#000000" d="M 33.148438 27.171875 L 28.425781 24.949219 C 28.371094 24.910156 28.304688 24.890625 28.234375 24.90625 L 22.660156 26.023438 L 19.027344 20.191406 C 18.957031 20.078125 18.804688 20.042969 18.691406 20.113281 L 18.175781 20.4375 C 18.058594 20.511719 18.027344 20.664062 18.097656 20.777344 L 21.9375 26.945312 L 20.488281 29.097656 C 20.410156 29.207031 20.441406 29.359375 20.554688 29.4375 L 20.824219 29.585938 C 20.9375 29.660156 21.089844 29.628906 21.164062 29.515625 L 22.777344 27.125 L 27.128906 26.25 L 29.238281 29.429688 C 29.3125 29.542969 29.460938 29.570312 29.574219 29.496094 L 29.84375 29.347656 C 29.957031 29.273438 29.988281 29.121094 29.914062 29.007812 L 27.972656 26.082031 L 28.164062 26.042969 L 32.683594 28.171875 C 32.808594 28.230469 32.953125 28.175781 33.007812 28.054688 L 33.265625 27.5 C 33.324219 27.375 33.269531 27.230469 33.148438 27.171875 Z M 33.148438 27.171875 " fill-opacity="1" fill-rule="nonzero"/></g></svg>