<svg xmlns="http://www.w3.org/2000/svg" xmlns:xlink="http://www.w3.org/1999/xlink" width="50" zoomAndPan="magnify" viewBox="0 0 37.5 37.499999" height="50" preserveAspectRatio="xMidYMid meet" version="1.0"><defs><clipPath id="b6149c0701"><path d="M 3.257812 9.699219 L 33.601562 9.699219 L 33.601562 25 L 3.257812 25 Z M 3.257812 9.699219 " clip-rule="nonzero"/></clipPath><clipPath id="5498b8488e"><path d="M 3.257812 25 L 33.601562 25 L 33.601562 27.460938 L 3.257812 27.460938 Z M 3.257812 25 " clip-rule="nonzero"/></clipPath></defs><g clip-path="url(#b6149c0701)"><path fill="#000000" d="M 3.652344 23.601562 L 3.292969 24.003906 C 3.566406 24.257812 3.875 24.449219 4.222656 24.585938 C 4.566406 24.722656 4.925781 24.789062 5.296875 24.789062 C 5.667969 24.789062 6.023438 24.722656 6.371094 24.585938 C 6.714844 24.449219 7.027344 24.257812 7.300781 24.003906 L 7.351562 23.953125 C 7.578125 23.753906 7.832031 23.605469 8.109375 23.503906 C 8.390625 23.398438 8.679688 23.351562 8.976562 23.355469 C 9.273438 23.359375 9.5625 23.417969 9.835938 23.527344 C 10.113281 23.640625 10.363281 23.796875 10.582031 24 C 10.855469 24.253906 11.167969 24.449219 11.511719 24.582031 C 11.855469 24.71875 12.214844 24.785156 12.585938 24.785156 C 12.957031 24.785156 13.3125 24.71875 13.660156 24.582031 C 14.003906 24.449219 14.3125 24.253906 14.589844 24 C 14.757812 23.847656 14.945312 23.71875 15.148438 23.617188 C 15.503906 23.4375 15.882812 23.351562 16.28125 23.359375 C 16.679688 23.367188 17.050781 23.46875 17.402344 23.664062 C 17.539062 23.738281 17.667969 23.828125 17.785156 23.9375 L 17.875 24.015625 C 18.148438 24.269531 18.457031 24.464844 18.800781 24.601562 C 19.148438 24.738281 19.507812 24.804688 19.875 24.804688 C 20.246094 24.804688 20.605469 24.738281 20.953125 24.601562 C 21.296875 24.464844 21.605469 24.269531 21.878906 24.015625 C 22.054688 23.839844 22.253906 23.699219 22.476562 23.589844 C 23.035156 23.320312 23.613281 23.277344 24.203125 23.457031 C 24.5625 23.5625 24.878906 23.742188 25.15625 24 C 25.429688 24.25 25.738281 24.445312 26.082031 24.582031 C 26.429688 24.714844 26.789062 24.785156 27.15625 24.785156 C 27.527344 24.785156 27.886719 24.714844 28.230469 24.582031 C 28.578125 24.445312 28.886719 24.25 29.160156 24 C 29.386719 23.789062 29.640625 23.632812 29.921875 23.519531 C 30.207031 23.40625 30.5 23.351562 30.800781 23.351562 C 31.105469 23.351562 31.398438 23.40625 31.683594 23.519531 C 31.964844 23.632812 32.21875 23.789062 32.445312 24 L 33.207031 24.714844 L 33.570312 24.316406 L 32.800781 23.589844 C 32.261719 23.089844 31.628906 22.832031 30.902344 22.808594 L 32.214844 18.910156 C 32.253906 18.800781 32.242188 18.699219 32.175781 18.605469 C 32.109375 18.511719 32.019531 18.464844 31.90625 18.464844 L 30.398438 18.464844 L 29.082031 15.597656 C 28.964844 15.339844 28.765625 15.210938 28.484375 15.207031 L 27.949219 15.207031 L 27.191406 14.003906 C 27.078125 13.824219 26.917969 13.734375 26.707031 13.734375 L 25.890625 13.734375 L 24.960938 12.378906 C 24.847656 12.210938 24.691406 12.128906 24.488281 12.128906 L 23.542969 12.128906 L 22.933594 11.152344 L 23.300781 11.152344 C 23.484375 11.152344 23.636719 11.085938 23.765625 10.957031 C 23.894531 10.828125 23.957031 10.671875 23.957031 10.484375 L 23.957031 10.359375 C 23.957031 10.175781 23.894531 10.015625 23.765625 9.886719 C 23.636719 9.753906 23.484375 9.691406 23.300781 9.691406 L 20.363281 9.691406 C 20.179688 9.691406 20.027344 9.753906 19.898438 9.886719 C 19.769531 10.015625 19.707031 10.175781 19.707031 10.359375 L 19.707031 10.484375 C 19.707031 10.671875 19.769531 10.828125 19.898438 10.957031 C 20.027344 11.085938 20.179688 11.152344 20.363281 11.152344 L 20.832031 11.152344 L 20.832031 12.128906 L 16.632812 12.128906 L 16.632812 11.378906 C 16.632812 11.226562 16.578125 11.101562 16.476562 10.996094 C 16.371094 10.886719 16.246094 10.835938 16.097656 10.835938 L 14.761719 10.835938 C 14.613281 10.835938 14.488281 10.886719 14.382812 10.996094 C 14.28125 11.101562 14.226562 11.226562 14.226562 11.378906 L 14.226562 12.136719 L 12.019531 12.136719 C 11.695312 12.136719 11.449219 12.277344 11.28125 12.554688 L 9.679688 15.207031 L 8.878906 15.207031 C 8.652344 15.207031 8.457031 15.285156 8.289062 15.441406 L 7.023438 16.625 C 6.902344 16.738281 6.839844 16.878906 6.839844 17.046875 L 6.839844 18.476562 L 4.453125 18.476562 C 4.324219 18.476562 4.226562 18.535156 4.160156 18.648438 C 4.097656 18.761719 4.097656 18.875 4.167969 18.984375 L 6.882812 23.648438 C 6.65625 23.847656 6.40625 23.996094 6.125 24.097656 C 5.84375 24.203125 5.554688 24.25 5.257812 24.246094 C 4.960938 24.242188 4.671875 24.183594 4.398438 24.074219 C 4.121094 23.964844 3.871094 23.804688 3.652344 23.601562 Z M 26.742188 14.296875 L 27.316406 15.207031 L 22.875 15.207031 L 23.265625 14.277344 L 26.710938 14.277344 C 26.722656 14.277344 26.734375 14.285156 26.742188 14.296875 Z M 20.375 10.617188 C 20.292969 10.617188 20.253906 10.574219 20.25 10.496094 L 20.25 10.367188 C 20.25 10.285156 20.292969 10.242188 20.375 10.238281 L 23.3125 10.238281 C 23.394531 10.242188 23.433594 10.285156 23.433594 10.367188 L 23.433594 10.496094 C 23.433594 10.574219 23.390625 10.617188 23.3125 10.617188 Z M 21.363281 11.160156 L 22.300781 11.160156 L 22.914062 12.136719 L 21.367188 12.136719 Z M 14.742188 11.367188 L 16.078125 11.367188 L 16.078125 12.136719 L 14.714844 12.136719 Z M 11.726562 12.835938 C 11.796875 12.726562 11.890625 12.675781 12.019531 12.675781 L 24.488281 12.675781 C 24.503906 12.675781 24.515625 12.683594 24.523438 12.695312 L 25.238281 13.734375 L 22.910156 13.734375 L 22.703125 14.242188 L 10.878906 14.242188 Z M 10.554688 14.785156 L 22.472656 14.785156 L 22.292969 15.207031 L 10.292969 15.207031 Z M 7.578125 16.839844 L 9.546875 16.839844 L 9.546875 17.382812 L 7.382812 17.382812 L 7.382812 17.023438 Z M 7.378906 17.925781 L 9.691406 17.925781 C 9.800781 17.925781 9.894531 17.882812 9.96875 17.808594 C 10.042969 17.730469 10.082031 17.636719 10.082031 17.527344 L 10.082031 16.699219 C 10.082031 16.589844 10.042969 16.496094 9.96875 16.417969 C 9.894531 16.339844 9.800781 16.300781 9.691406 16.300781 L 8.160156 16.300781 L 8.652344 15.839844 C 8.71875 15.78125 8.792969 15.75 8.878906 15.75 L 28.484375 15.75 C 28.539062 15.75 28.578125 15.777344 28.597656 15.824219 L 29.8125 18.476562 L 7.378906 18.476562 Z M 31.617188 19.007812 L 30.324219 22.84375 C 29.742188 22.9375 29.234375 23.1875 28.796875 23.59375 C 28.574219 23.800781 28.320312 23.957031 28.035156 24.070312 C 27.75 24.179688 27.457031 24.238281 27.152344 24.238281 C 26.851562 24.238281 26.554688 24.179688 26.273438 24.070312 C 25.988281 23.957031 25.734375 23.800781 25.511719 23.59375 C 25.175781 23.28125 24.789062 23.0625 24.351562 22.933594 C 23.632812 22.714844 22.933594 22.769531 22.257812 23.09375 C 21.980469 23.21875 21.730469 23.386719 21.507812 23.59375 C 21.289062 23.796875 21.042969 23.953125 20.769531 24.0625 C 20.492188 24.171875 20.210938 24.230469 19.914062 24.234375 C 19.621094 24.242188 19.335938 24.195312 19.054688 24.09375 C 18.777344 23.996094 18.527344 23.847656 18.300781 23.65625 L 18.222656 23.589844 C 18.046875 23.425781 17.855469 23.285156 17.640625 23.175781 C 17.199219 22.929688 16.726562 22.804688 16.222656 22.804688 C 15.457031 22.808594 14.789062 23.070312 14.222656 23.589844 C 13.996094 23.796875 13.742188 23.953125 13.460938 24.066406 C 13.175781 24.175781 12.882812 24.230469 12.578125 24.230469 C 12.273438 24.230469 11.980469 24.175781 11.699219 24.066406 C 11.414062 23.953125 11.160156 23.796875 10.933594 23.589844 C 10.691406 23.367188 10.417969 23.1875 10.113281 23.058594 C 9.8125 22.925781 9.496094 22.847656 9.167969 22.824219 C 8.839844 22.800781 8.515625 22.828125 8.195312 22.914062 C 7.878906 23 7.582031 23.132812 7.308594 23.320312 L 4.808594 19.019531 Z M 31.617188 19.007812 " fill-opacity="1" fill-rule="nonzero"/></g><g clip-path="url(#5498b8488e)"><path fill="#000000" d="M 7.292969 26.40625 C 7.519531 26.199219 7.773438 26.039062 8.054688 25.929688 C 8.339844 25.816406 8.632812 25.761719 8.9375 25.761719 C 9.242188 25.761719 9.535156 25.816406 9.816406 25.929688 C 10.101562 26.039062 10.355469 26.199219 10.578125 26.40625 C 10.851562 26.660156 11.164062 26.855469 11.507812 26.992188 C 11.855469 27.128906 12.210938 27.195312 12.582031 27.195312 C 12.953125 27.195312 13.3125 27.128906 13.65625 26.992188 C 14.003906 26.855469 14.3125 26.660156 14.585938 26.40625 C 14.808594 26.199219 15.0625 26.039062 15.347656 25.929688 C 15.632812 25.816406 15.925781 25.761719 16.226562 25.761719 C 16.53125 25.761719 16.824219 25.816406 17.109375 25.929688 C 17.394531 26.039062 17.648438 26.199219 17.871094 26.40625 C 18.144531 26.660156 18.453125 26.855469 18.800781 26.992188 C 19.144531 27.128906 19.503906 27.195312 19.875 27.195312 C 20.246094 27.195312 20.601562 27.128906 20.949219 26.992188 C 21.292969 26.855469 21.605469 26.660156 21.878906 26.40625 C 22.101562 26.199219 22.355469 26.039062 22.640625 25.929688 C 22.921875 25.816406 23.214844 25.761719 23.519531 25.761719 C 23.824219 25.761719 24.117188 25.816406 24.402344 25.929688 C 24.683594 26.039062 24.9375 26.199219 25.164062 26.40625 C 25.4375 26.660156 25.746094 26.855469 26.089844 26.992188 C 26.4375 27.128906 26.796875 27.195312 27.164062 27.195312 C 27.535156 27.195312 27.894531 27.128906 28.238281 26.992188 C 28.585938 26.855469 28.894531 26.660156 29.167969 26.40625 C 29.394531 26.199219 29.648438 26.042969 29.929688 25.929688 C 30.210938 25.820312 30.503906 25.765625 30.808594 25.765625 C 31.113281 25.765625 31.40625 25.820312 31.6875 25.929688 C 31.972656 26.042969 32.226562 26.199219 32.449219 26.40625 L 33.203125 27.109375 L 33.566406 26.710938 L 32.800781 25.992188 C 32.527344 25.742188 32.21875 25.546875 31.871094 25.410156 C 31.527344 25.273438 31.167969 25.207031 30.796875 25.207031 C 30.425781 25.207031 30.070312 25.273438 29.722656 25.410156 C 29.378906 25.546875 29.070312 25.742188 28.796875 25.992188 C 28.570312 26.203125 28.316406 26.363281 28.035156 26.472656 C 27.75 26.585938 27.457031 26.640625 27.152344 26.640625 C 26.847656 26.640625 26.554688 26.585938 26.269531 26.472656 C 25.988281 26.363281 25.734375 26.203125 25.511719 25.992188 C 25.234375 25.742188 24.925781 25.546875 24.582031 25.410156 C 24.234375 25.273438 23.878906 25.207031 23.507812 25.207031 C 23.136719 25.207031 22.777344 25.273438 22.433594 25.410156 C 22.085938 25.546875 21.777344 25.742188 21.503906 25.992188 C 21.28125 26.203125 21.027344 26.363281 20.742188 26.472656 C 20.460938 26.585938 20.164062 26.640625 19.863281 26.640625 C 19.558594 26.640625 19.265625 26.585938 18.980469 26.472656 C 18.699219 26.363281 18.445312 26.203125 18.222656 25.992188 C 17.949219 25.742188 17.636719 25.546875 17.292969 25.410156 C 16.945312 25.273438 16.589844 25.207031 16.21875 25.207031 C 15.847656 25.207031 15.488281 25.273438 15.144531 25.410156 C 14.796875 25.546875 14.488281 25.742188 14.214844 25.992188 C 13.988281 26.199219 13.734375 26.359375 13.453125 26.472656 C 13.171875 26.582031 12.875 26.636719 12.574219 26.636719 C 12.269531 26.636719 11.976562 26.582031 11.695312 26.472656 C 11.410156 26.359375 11.15625 26.199219 10.933594 25.992188 C 10.660156 25.738281 10.347656 25.542969 10.003906 25.40625 C 9.65625 25.269531 9.300781 25.203125 8.929688 25.203125 C 8.558594 25.203125 8.199219 25.269531 7.855469 25.40625 C 7.507812 25.542969 7.199219 25.738281 6.925781 25.992188 C 6.703125 26.203125 6.449219 26.359375 6.164062 26.472656 C 5.878906 26.585938 5.585938 26.640625 5.28125 26.640625 C 4.980469 26.640625 4.683594 26.585938 4.402344 26.472656 C 4.117188 26.359375 3.863281 26.203125 3.640625 25.992188 L 3.292969 26.40625 C 3.566406 26.660156 3.875 26.855469 4.222656 26.992188 C 4.566406 27.125 4.921875 27.195312 5.292969 27.195312 C 5.664062 27.195312 6.019531 27.125 6.367188 26.992188 C 6.710938 26.855469 7.019531 26.660156 7.292969 26.40625 Z M 7.292969 26.40625 " fill-opacity="1" fill-rule="nonzero"/></g><path fill="#000000" d="M 10.941406 16.671875 L 11.871094 16.671875 L 11.871094 17.554688 L 10.941406 17.554688 Z M 10.941406 16.671875 " fill-opacity="1" fill-rule="nonzero"/><path fill="#000000" d="M 12.699219 16.671875 L 13.628906 16.671875 L 13.628906 17.554688 L 12.699219 17.554688 Z M 12.699219 16.671875 " fill-opacity="1" fill-rule="nonzero"/><path fill="#000000" d="M 14.453125 16.671875 L 15.382812 16.671875 L 15.382812 17.554688 L 14.453125 17.554688 Z M 14.453125 16.671875 " fill-opacity="1" fill-rule="nonzero"/><path fill="#000000" d="M 16.210938 16.671875 L 17.140625 16.671875 L 17.140625 17.554688 L 16.210938 17.554688 Z M 16.210938 16.671875 " fill-opacity="1" fill-rule="nonzero"/><path fill="#000000" d="M 17.964844 16.671875 L 18.894531 16.671875 L 18.894531 17.554688 L 17.964844 17.554688 Z M 17.964844 16.671875 " fill-opacity="1" fill-rule="nonzero"/><path fill="#000000" d="M 19.71875 16.671875 L 20.648438 16.671875 L 20.648438 17.554688 L 19.71875 17.554688 Z M 19.71875 16.671875 " fill-opacity="1" fill-rule="nonzero"/><path fill="#000000" d="M 21.476562 16.671875 L 22.40625 16.671875 L 22.40625 17.554688 L 21.476562 17.554688 Z M 21.476562 16.671875 " fill-opacity="1" fill-rule="nonzero"/><path fill="#000000" d="M 23.230469 16.671875 L 24.160156 16.671875 L 24.160156 17.554688 L 23.230469 17.554688 Z M 23.230469 16.671875 " fill-opacity="1" fill-rule="nonzero"/><path fill="#000000" d="M 24.988281 16.671875 L 25.917969 16.671875 L 25.917969 17.554688 L 24.988281 17.554688 Z M 24.988281 16.671875 " fill-opacity="1" fill-rule="nonzero"/><path fill="#000000" d="M 26.742188 16.671875 L 27.671875 16.671875 L 27.671875 17.554688 L 26.742188 17.554688 Z M 26.742188 16.671875 " fill-opacity="1" fill-rule="nonzero"/></svg>