<svg xmlns="http://www.w3.org/2000/svg" xmlns:xlink="http://www.w3.org/1999/xlink" width="50" zoomAndPan="magnify" viewBox="0 0 37.5 37.499999" height="50" preserveAspectRatio="xMidYMid meet" version="1.0"><defs><clipPath id="de9690b4e7"><path d="M 4.148438 3.699219 L 33 3.699219 L 33 31.085938 L 4.148438 31.085938 Z M 4.148438 3.699219 " clip-rule="nonzero"/></clipPath></defs><g clip-path="url(#de9690b4e7)"><path fill="#000000" d="M 30.300781 28.3125 C 30.152344 28.355469 30.03125 28.367188 29.933594 28.421875 C 29.738281 28.539062 29.625 28.488281 29.527344 28.300781 C 29.371094 28 29.175781 27.71875 29.050781 27.410156 C 28.902344 27.042969 28.585938 27.003906 28.347656 27.324219 C 28.050781 27.722656 27.671875 28.023438 27.183594 28.167969 C 26.550781 28.351562 26.039062 28.085938 25.574219 27.710938 C 25.351562 27.535156 25.171875 27.304688 24.917969 27.046875 C 24.828125 27.566406 24.742188 28.015625 24.6875 28.464844 C 24.675781 28.550781 24.761719 28.667969 24.835938 28.746094 C 25.078125 29.007812 25.105469 29.285156 24.996094 29.621094 C 24.925781 29.832031 24.953125 30.078125 24.90625 30.300781 C 24.867188 30.5 24.816406 30.714844 24.703125 30.882812 C 24.566406 31.085938 24.230469 31.0625 24.070312 30.847656 C 23.699219 30.34375 23.453125 29.78125 23.375 29.164062 C 23.355469 29.003906 23.441406 28.835938 23.46875 28.671875 C 23.503906 28.4375 23.558594 28.199219 23.546875 27.964844 C 23.507812 27.386719 23.445312 26.808594 23.378906 26.234375 C 23.371094 26.160156 23.296875 26.070312 23.230469 26.03125 C 22.980469 25.890625 22.722656 25.765625 22.464844 25.636719 C 22.207031 25.511719 22.035156 25.320312 21.949219 25.042969 C 21.875 24.8125 21.769531 24.59375 21.6875 24.367188 C 21.644531 24.246094 21.574219 24.21875 21.453125 24.25 C 20.894531 24.402344 20.871094 24.390625 20.511719 23.910156 C 20.417969 23.785156 20.40625 23.703125 20.589844 23.667969 C 20.632812 23.660156 20.675781 23.640625 20.71875 23.632812 C 20.898438 23.601562 20.878906 23.523438 20.78125 23.410156 C 20.519531 23.121094 20.257812 22.832031 20 22.539062 C 19.953125 22.488281 19.898438 22.441406 19.875 22.382812 C 19.785156 22.167969 19.621094 22.136719 19.421875 22.179688 C 19.253906 22.222656 19.164062 22.152344 19.09375 22.003906 C 18.910156 21.605469 18.738281 21.199219 18.515625 20.820312 C 18.265625 20.398438 17.980469 19.996094 17.683594 19.605469 C 17.613281 19.507812 17.445312 19.46875 17.3125 19.4375 C 16.433594 19.226562 15.539062 19.066406 14.675781 18.804688 C 14.089844 18.625 13.546875 18.316406 12.988281 18.046875 C 12.652344 17.886719 12.441406 17.601562 12.257812 17.277344 C 11.417969 15.804688 10.375 14.484375 9.089844 13.363281 C 8.644531 12.976562 8.125 12.664062 7.628906 12.335938 C 7.191406 12.042969 6.785156 11.730469 6.464844 11.296875 C 5.914062 10.535156 5.308594 9.8125 4.925781 8.941406 C 4.648438 8.3125 4.3125 7.703125 4.207031 7.015625 C 4.15625 6.679688 4.167969 6.335938 4.148438 5.925781 C 4.257812 6.003906 4.308594 6.039062 4.355469 6.078125 C 4.675781 6.359375 4.984375 6.65625 5.316406 6.925781 C 5.535156 7.105469 5.640625 7.324219 5.695312 7.59375 C 5.792969 8.066406 5.921875 8.53125 6.050781 8.992188 C 6.179688 9.4375 6.539062 9.703125 6.890625 9.957031 C 7.34375 10.285156 7.839844 10.484375 8.417969 10.441406 C 8.714844 10.421875 9.011719 10.425781 9.308594 10.441406 C 9.378906 10.445312 9.480469 10.519531 9.507812 10.582031 C 9.632812 10.886719 9.722656 11.199219 9.460938 11.488281 C 9.335938 11.625 9.453125 11.6875 9.554688 11.757812 C 10.421875 12.359375 11.285156 12.96875 12.160156 13.554688 C 12.972656 14.105469 13.460938 14.875 13.746094 15.792969 C 13.765625 15.859375 13.886719 15.9375 13.96875 15.941406 C 14.871094 15.996094 15.769531 16.039062 16.671875 16.085938 C 16.828125 16.09375 16.984375 16.085938 17.160156 16.085938 C 17.070312 15.859375 16.980469 15.632812 16.898438 15.402344 C 16.753906 14.988281 16.609375 14.578125 16.480469 14.15625 C 16.449219 14.054688 16.453125 13.914062 16.503906 13.820312 C 16.761719 13.316406 16.789062 12.792969 16.746094 12.238281 C 16.6875 11.457031 16.65625 10.667969 16.640625 9.882812 C 16.632812 9.484375 16.496094 9.136719 16.289062 8.8125 C 16.011719 8.378906 15.757812 7.921875 15.421875 7.539062 C 15.117188 7.191406 14.734375 6.898438 14.347656 6.632812 C 13.257812 5.890625 12.152344 5.171875 11.050781 4.445312 C 10.785156 4.269531 10.542969 4.085938 10.527344 3.699219 C 10.886719 3.867188 11.230469 4.023438 11.570312 4.1875 C 12.914062 4.824219 14.253906 5.46875 15.605469 6.097656 C 16.152344 6.351562 16.722656 6.539062 17.347656 6.53125 C 17.851562 6.523438 18.015625 6.757812 17.949219 7.253906 C 17.941406 7.304688 17.9375 7.355469 17.917969 7.402344 C 17.667969 8.121094 17.996094 8.773438 18.167969 9.433594 C 18.382812 10.253906 18.679688 11.050781 18.914062 11.863281 C 19.003906 12.179688 19.0625 12.511719 19.0625 12.839844 C 19.0625 13.105469 18.949219 13.375 18.898438 13.644531 C 18.882812 13.734375 18.863281 13.851562 18.90625 13.921875 C 19.402344 14.75 19.910156 15.574219 20.433594 16.429688 C 20.582031 16.28125 20.722656 16.128906 20.875 15.984375 C 21.289062 15.585938 21.707031 15.191406 22.125 14.792969 C 22.285156 14.640625 22.464844 14.617188 22.675781 14.683594 C 23.097656 14.8125 23.4375 15.058594 23.734375 15.375 C 24.335938 16.015625 24.933594 16.660156 25.542969 17.292969 C 25.660156 17.414062 25.816406 17.539062 25.972656 17.585938 C 26.375 17.699219 26.578125 18.003906 26.800781 18.308594 C 26.988281 18.558594 27.160156 18.828125 27.382812 19.046875 C 27.9375 19.597656 28.515625 20.125 29.09375 20.652344 C 29.214844 20.761719 29.246094 20.851562 29.175781 20.992188 C 29.152344 21.035156 29.144531 21.089844 29.128906 21.136719 C 29.011719 21.464844 29.007812 21.46875 29.359375 21.5625 C 29.519531 21.605469 29.570312 21.71875 29.5625 21.859375 C 29.550781 22.027344 29.519531 22.195312 29.507812 22.363281 C 29.484375 22.773438 29.628906 22.925781 30.035156 22.972656 C 30.09375 22.980469 30.175781 23.0625 30.1875 23.125 C 30.222656 23.308594 30.230469 23.5 30.25 23.71875 C 30.476562 23.699219 30.699219 23.683594 30.921875 23.65625 C 30.964844 23.648438 31.015625 23.585938 31.027344 23.542969 C 31.167969 22.953125 31.296875 22.359375 31.441406 21.769531 C 31.453125 21.714844 31.546875 21.628906 31.589844 21.636719 C 31.71875 21.660156 31.789062 21.753906 31.753906 21.898438 C 31.695312 22.144531 31.636719 22.394531 31.578125 22.644531 C 31.507812 22.949219 31.441406 23.253906 31.371094 23.5625 C 31.414062 23.574219 31.433594 23.589844 31.453125 23.589844 C 32.109375 23.59375 32.078125 23.621094 32.503906 24.113281 C 32.976562 24.671875 33.011719 25.289062 32.925781 25.953125 C 32.898438 26.160156 32.882812 26.363281 32.863281 26.566406 C 32.863281 26.597656 32.871094 26.636719 32.855469 26.652344 C 32.671875 26.847656 32.734375 27.019531 32.867188 27.214844 C 32.898438 27.257812 32.816406 27.425781 32.742188 27.484375 C 32.484375 27.6875 32.21875 27.890625 31.933594 28.054688 C 31.691406 28.195312 31.511719 28.359375 31.425781 28.632812 C 31.382812 28.769531 31.304688 28.898438 31.238281 29.027344 C 31.132812 29.230469 30.953125 29.289062 30.75 29.21875 C 30.285156 29.054688 30.269531 29.117188 30.300781 28.625 C 30.304688 28.535156 30.300781 28.449219 30.300781 28.3125 Z M 24.960938 26.894531 C 24.980469 26.953125 24.984375 26.996094 25.003906 27.019531 C 25.375 27.410156 25.765625 27.78125 26.273438 27.992188 C 26.964844 28.277344 28.035156 27.832031 28.304688 27.167969 C 28.097656 27.023438 27.902344 26.871094 27.695312 26.742188 C 27.605469 26.691406 27.484375 26.660156 27.378906 26.664062 C 27.03125 26.683594 26.6875 26.722656 26.339844 26.757812 C 25.886719 26.800781 25.433594 26.847656 24.960938 26.894531 Z M 24.960938 26.894531 " fill-opacity="1" fill-rule="nonzero"/></g><path fill="#000000" d="M 30.058594 17.78125 C 30.054688 18.117188 29.742188 18.449219 29.421875 18.445312 C 29.085938 18.441406 28.769531 18.117188 28.769531 17.773438 C 28.769531 17.46875 29.085938 17.15625 29.398438 17.148438 C 29.742188 17.144531 30.058594 17.445312 30.058594 17.78125 Z M 30.058594 17.78125 " fill-opacity="1" fill-rule="nonzero"/><path fill="#000000" d="M 30.6875 19.570312 C 30.308594 19.570312 30.097656 19.375 30.09375 19.015625 C 30.09375 18.734375 30.367188 18.46875 30.65625 18.472656 C 30.964844 18.476562 31.253906 18.738281 31.230469 19.023438 C 31.203125 19.359375 31.085938 19.589844 30.6875 19.570312 Z M 30.6875 19.570312 " fill-opacity="1" fill-rule="nonzero"/><path fill="#000000" d="M 31.796875 20.535156 C 31.796875 20.71875 31.601562 20.925781 31.417969 20.925781 C 31.246094 20.929688 31.066406 20.742188 31.058594 20.546875 C 31.050781 20.386719 31.25 20.191406 31.417969 20.195312 C 31.585938 20.199219 31.792969 20.382812 31.796875 20.535156 Z M 31.796875 20.535156 " fill-opacity="1" fill-rule="nonzero"/><path fill="#000000" d="M 30.597656 21.097656 C 30.5625 21.035156 30.488281 20.964844 30.5 20.914062 C 30.519531 20.835938 30.59375 20.765625 30.644531 20.691406 C 30.699219 20.765625 30.78125 20.835938 30.804688 20.917969 C 30.816406 20.964844 30.730469 21.039062 30.691406 21.097656 C 30.660156 21.097656 30.628906 21.097656 30.597656 21.097656 Z M 30.597656 21.097656 " fill-opacity="1" fill-rule="nonzero"/><path fill="#000000" d="M 30.585938 22.195312 C 30.539062 22.121094 30.488281 22.074219 30.496094 22.039062 C 30.507812 21.992188 30.5625 21.957031 30.601562 21.914062 C 30.640625 21.953125 30.710938 21.992188 30.714844 22.03125 C 30.71875 22.074219 30.652344 22.117188 30.585938 22.195312 Z M 30.585938 22.195312 " fill-opacity="1" fill-rule="nonzero"/></svg>